<?xml version="1.0" encoding="UTF-8"?>
<svg id="Layer_2" data-name="Layer 2" xmlns="http://www.w3.org/2000/svg" viewBox="0 0 1265.95 732.19">
  <defs>
    <style>
      .cls-1, .cls-2, .cls-3, .cls-4, .cls-5, .cls-6 {
        stroke-width: 0px;
      }

      .cls-1, .cls-7 {
        fill: #a1cf6d;
      }

      .cls-8 {
        fill: #fce0ce;
      }

      .cls-8, .cls-9, .cls-10, .cls-11, .cls-12, .cls-13, .cls-14, .cls-15, .cls-16, .cls-7 {
        stroke-miterlimit: 10;
      }

      .cls-8, .cls-9, .cls-10, .cls-11, .cls-12, .cls-15, .cls-16 {
        stroke-width: 4.6px;
      }

      .cls-8, .cls-9, .cls-11, .cls-12, .cls-13, .cls-14, .cls-15, .cls-16, .cls-7 {
        stroke: #231f20;
      }

      .cls-9 {
        fill: #ad9282;
      }

      .cls-2 {
        fill: #00b1dc;
      }

      .cls-10 {
        fill: none;
        stroke: #fff;
      }

      .cls-11, .cls-6 {
        fill: #231f20;
      }

      .cls-12 {
        fill: #816c5d;
      }

      .cls-3, .cls-14 {
        fill: #0a0203;
      }

      .cls-4, .cls-13 {
        fill: #fff;
      }

      .cls-5 {
        fill: #c77161;
      }

      .cls-13 {
        stroke-width: 4.6px;
      }

      .cls-15 {
        fill: #f5ec43;
      }

      .cls-16 {
        fill: #b6a69e;
      }

      .cls-7 {
        stroke-width: 4.6px;
      }
    </style>
  </defs>
  <g id="Layer_3" data-name="Layer 3">
    <g>
      <path class="cls-6" d="m1084.91,602.44c5.57,12.66,16.12,22.01,25.04,32.25,2.19,2.51,4.29,5.09,6.19,7.82.9,1.3,2.13,2.59,1.69,4.25-.52,1.95-1.44,3.84-2.15,5.73-2.91,7.72-5.52,15.56-7.83,23.48-2.61,8.99-4.82,18.1-6.63,27.29-.26,1.32.38,2.7,1.75,3.08,1.23.34,2.81-.42,3.08-1.75,3.27-16.59,7.85-32.91,13.71-48.76.74-2.01,1.51-4.01,2.29-6.01s1.3-4.04.57-6.1c-.63-1.78-1.85-3.34-2.95-4.86s-2.14-2.86-3.26-4.25c-4.43-5.48-9.4-10.49-14.1-15.73-5.16-5.75-9.94-11.86-13.07-18.97-.54-1.24-2.35-1.52-3.42-.9-1.27.75-1.44,2.18-.9,3.42h0Z"/>
      <g>
        <path class="cls-12" d="m819.05,461.78c-11.41,1.73-12.38,21.42-.65,23.22,5.83,1.16,11.77-4.8,12.73-10.25.52-6.39-5.63-13.14-12.08-12.97Z"/>
        <path class="cls-6" d="m995.35,728.13c-7.25-10.43-22.37-17.18-35.34-21.22-8.63-2.69-17.94-3.56-27.02-2.62-6.7.69-9.42,8.08-4.54,12.26,7.01,6.01,15.56,10.58,24.83,13.15,13.67,3.8,28.8,3.24,42.07-1.57Z"/>
        <path class="cls-6" d="m1103.77,704.45c17.92-3.15,35.31-11.09,53.45-9.06,2.77.31,5.67.93,7.63,2.64,3.15,2.75,2.69,7.53,0,10.62-2.69,3.09-7.02,4.79-11.31,5.93-16.94,4.51-35.27-1.35-49.76-10.13Z"/>
        <path class="cls-15" d="m975.6,544.59c-.03,17.14-.55,43.74-.58,60.88,0,1.27.04,2.66.87,3.63.84.98,2.25,1.22,3.53,1.39,22.52,2.98,45.2,4.84,67.91,5.57.34-12.55-1.39-25.16-5.12-37.16,8.23,7.58,14.79,16.98,19.05,27.33,18.34-3.46,36.67-6.93,55.01-10.39-3.89-20.87-7.77-41.73-11.66-62.6-.49-2.63-1.24-12.85-3.53-14.23-1.97-1.2-4.48-.82-6.75-.4-42.68,7.92-77.21,13.29-118.72,25.98Z"/>
        <path class="cls-6" d="m831.83,475.32c20.32-.29,40.64,1.75,60.47,6.18,5.59,1.25,11.14,2.68,16.64,4.29,1.08.32,2.25-.22,2.82-1.15,5.59-9.03,14.01-16.35,23.83-20.46,1.24-.52,2.14-1.65,1.75-3.08-.32-1.17-1.82-2.27-3.08-1.75-11.08,4.64-20.48,12.53-26.82,22.76l2.82-1.15c-19.85-5.8-40.37-9.27-61.02-10.33-5.8-.3-11.61-.4-17.42-.31-3.21.05-3.22,5.05,0,5h0Z"/>
        <path class="cls-7" d="m924.95,449.29c1.37,12.47,6.16,24.56,13.69,34.59,9.03-8.62,18.05-17.23,27.08-25.85,1.46,31.13,2.92,62.25,4.37,93.38,44.92-15.21,91.81-24.6,139.12-27.86-7.86-29.07-15.73-58.14-23.59-87.21-.77-2.86-1.55-5.84-1.03-8.76.49-2.72,2.07-5.1,3.63-7.39,11.69-17.08,24.36-33.49,37.94-49.12-7.51-9.86-15.48-19.36-23.87-28.48-18.79,15.96-37.58,31.91-56.38,47.87-2.63,2.23-5.33,4.51-8.57,5.69-3.48,1.27-7.29,1.17-10.99,1.05-15.22-.48-30.44-.95-45.66-1.43-2.38-.07-4.85-.14-7.07.73-2.47.96-4.36,2.96-6.16,4.9-13.82,14.87-28.7,33.01-42.52,47.87Z"/>
        <path class="cls-6" d="m1114.41,356.64c2.44-1.73,4.88-3.45,7.31-5.18,2.11-1.49,4.58-2.88,6.19-4.94,1.74-2.22,1.77-4.86,1.65-7.56s-.18-5.53-.18-8.3c.02-11.08,1.07-22.16,3.17-33.04,1.2-6.21,2.73-12.35,4.57-18.4.94-3.09-3.89-4.4-4.82-1.33-3.15,10.36-5.35,20.97-6.64,31.72-.64,5.34-1.04,10.7-1.2,16.08-.08,2.77-.1,5.53-.06,8.3.04,2.55.47,5.27.19,7.81-.27,2.4-3.04,3.67-4.8,4.92-2.64,1.87-5.28,3.74-7.92,5.61-1.1.78-1.62,2.18-.9,3.42.64,1.09,2.31,1.68,3.42.9h0Z"/>
        <path class="cls-6" d="m1002.69,615.52c-3.11,28.97-5.79,57.99-8.04,87.04-.63,8.19-1.23,16.39-1.8,24.59-.09,1.35,1.22,2.5,2.5,2.5,1.43,0,2.41-1.15,2.5-2.5,2.01-29.07,4.44-58.11,7.31-87.11.81-8.18,1.65-16.35,2.53-24.53.14-1.34-1.25-2.5-2.5-2.5-1.47,0-2.36,1.15-2.5,2.5h0Z"/>
        <g>
          <g>
            <g>
              <g>
                <path class="cls-12" d="m1050.03,260.63c-28.76-16.59-70.91,4.27-85.76,31.42-10.75,24.87-1.7,57.7,18.26,76.83,6.42,6.16,13.98,10.9,22.37,13.49,17.27,3.08,32.84-2.25,45.17-12.27,33.01-26.81,42.82-87.16-.04-109.47Z"/>
                <path class="cls-11" d="m994.99,295.77c-20.63.93-21.63,38.74-4.33,44.31,28.28,6.84,28.53-43.04,4.33-44.31Z"/>
              </g>
              <path class="cls-6" d="m1052.57,295.76c-1.49-1.11-3.3-1.73-5.16-1.8-26.88-1.02-29.5,51.18,1.06,46.54.87-.13,1.75-.23,2.62-.34,20.08-2.62,15.17-34.18,1.48-44.4Z"/>
              <path class="cls-4" d="m1044.03,337.56c-8.09.49-11.33-8.74-9.22-10.77,6.11-6.14,13.96-10.71,22.63-7.56,0,0,1.93.53,2.06,2.74.52,8.55-1.03,14.71-15.47,15.6Z"/>
              <path class="cls-4" d="m1048.75,298.04c10.07,4.38,3.52,9.24-2.73,9.61-2.67.16-4.54-1.01-6.41-2.49-2.08-1.65-1.73-5.22.63-6.19,2.81-1.16,6.53-1.59,8.51-.92Z"/>
            </g>
            <path class="cls-4" d="m991.97,336.11c3.09.57,6.25.19,9.12-1.07,2.62-1.15,5.06-2.81,5.68-5.59,11.61-26.36-38.95,2.22-14.8,6.66Z"/>
            <path class="cls-4" d="m996.3,312.28c17.24-1.26,1.52-17.23-6.09-10.69-1.28,1.1-1.74,2.9-1.14,4.48,1.22,3.21,3.59,6.27,7.23,6.21Z"/>
          </g>
          <path class="cls-6" d="m1010.6,355.66c8.12-.5,16.24-.99,24.36-1.49,3.2-.19,3.22-5.2,0-5-8.12.5-16.24.99-24.36,1.49-3.2.19-3.22,5.2,0,5h0Z"/>
        </g>
        <g>
          <g>
            <path class="cls-3" d="m1118.48,235.2c-5.75,7.92-12.56,15.82-13.81,25.53-.28,2.19-.21,4.57,1.06,6.37.95,1.34,2.44,2.17,3.87,2.95,11.69,6.41,23.38,12.81,35.07,19.22,1.58.87,3.26,1.76,5.06,1.74,2.52-.02,4.66-1.77,6.48-3.51,18.78-17.8,29.27-42.53,45.5-62.68,5.24-6.5,11.36-15.35,6.7-22.28-1.48-2.2-3.81-3.64-6.09-4.99-13.99-8.28-24.47-15.5-39.56-21.56-1.96-.79-4.07-1.57-6.14-1.18-2.3.43-4.09,2.21-5.66,3.95-4.56,5.08-23.16,43.57-32.49,56.43Z"/>
            <path class="cls-6" d="m1116.32,233.94c-3.54,4.87-7.38,9.58-10.22,14.91-1.42,2.66-2.62,5.49-3.33,8.43s-1.19,6.23-.16,9.13c1.18,3.34,4.12,4.92,7.05,6.53,3.22,1.76,6.43,3.52,9.65,5.28,6.43,3.52,12.86,7.05,19.29,10.57,2.89,1.59,5.98,3.82,9.25,4.52s6.39-.79,8.95-2.95c4.58-3.87,8.56-8.64,12.25-13.34,7.58-9.66,13.93-20.17,20.53-30.5,3.29-5.14,6.64-10.25,10.26-15.16,3.54-4.8,7.71-9.25,10.38-14.63s3.56-11.6-.48-16.58c-1.94-2.39-4.73-3.91-7.33-5.46-2.81-1.67-5.6-3.38-8.39-5.07-5.26-3.2-10.54-6.38-15.99-9.26-2.8-1.48-5.64-2.88-8.52-4.18-3.03-1.37-6.25-3.06-9.53-3.71-8.35-1.64-12.81,7.06-16.23,13.11-8.35,14.78-15.67,30.21-24.83,44.54-.83,1.3-1.68,2.58-2.59,3.83-.79,1.1-.19,2.79.9,3.42,1.26.74,2.63.2,3.42-.9,4.27-5.91,7.78-12.4,11.31-18.77,4.14-7.49,8.15-15.05,12.23-22.57,1.66-3.06,3.33-6.12,5.08-9.13.63-1.09,1.28-2.18,1.95-3.25.26-.41.52-.82.8-1.22.12-.17.24-.34.36-.51.24-.34.43-.49.03-.06,1.27-1.37,2.58-3.2,4.52-3.63,1.33-.3,2.67.15,3.91.6,1.52.55,3.02,1.19,4.5,1.84,5.49,2.4,10.81,5.16,16.01,8.14s10.02,5.98,15.01,9c2.57,1.56,5.34,2.95,7.74,4.77,1.83,1.38,3.23,3.26,3.45,5.6.49,5.1-3.26,10.15-6.16,13.98-3.44,4.55-6.98,8.99-10.2,13.71-6.53,9.58-12.38,19.6-18.91,29.18-3.18,4.66-6.51,9.22-10.17,13.51-1.87,2.2-3.83,4.33-5.88,6.37-1.61,1.6-3.69,4.19-6.1,4.49-1.23.16-2.41-.44-3.46-.99-1.57-.83-3.12-1.71-4.68-2.56-3-1.64-5.99-3.28-8.99-4.92-6.06-3.32-12.13-6.65-18.19-9.97-1.44-.79-2.88-1.56-4.31-2.36-1.12-.63-2.44-1.29-3.02-2.52-1.03-2.19-.3-5.13.31-7.35,1.47-5.37,4.6-10.1,7.83-14.57,1.65-2.28,3.36-4.52,5.02-6.8.79-1.09.19-2.79-.9-3.42-1.26-.74-2.62-.2-3.42.9Z"/>
          </g>
          <path class="cls-10" d="m1185.24,233.63c-9.44-2.98-10.12-16.29-7.02-24.34-29.06,89.73-70.49,14.4-24.23,17"/>
        </g>
      </g>
    </g>
    <g>
      <g>
        <path class="cls-6" d="m645.48,539.44c.07,12.83.51,25.67.87,38.5.41,14.54.84,29.09.96,43.64.05,6.7.06,13.41-.18,20.11-.12,3.22,4.88,3.21,5,0,.46-12.82.17-25.67-.11-38.48-.32-14.55-.8-29.09-1.17-43.64-.17-6.7-.33-13.41-.36-20.12-.02-3.22-5.02-3.22-5,0h0Z"/>
        <path class="cls-6" d="m648.57,642.82c12.12-2.48,23.89-8.74,36.16-7.14,1.87.24,3.83.73,5.16,2.08,2.13,2.16,1.82,5.93,0,8.37-1.82,2.43-4.75,3.77-7.65,4.67-11.46,3.55-23.86-1.06-33.67-7.98Z"/>
      </g>
      <g>
        <path class="cls-8" d="m765.62,327.2c-10.53-4.74-22.03,11.27-13.15,19.16,4.27,4.13,12.49,2.35,16.25-1.71,3.9-5.09,2.41-14.1-3.1-17.45Z"/>
        <g>
          <path class="cls-2" d="m549.85,382.31c-1.97,8.8-1.13,17.81-3.11,26.61,6.54,1.52,12.93,3.7,19.04,6.49,1.45.66,3.01,1.5,3.52,3.01.46,1.35-.09,2.82-.62,4.14-8.19,20.53-14.21,41.93-17.93,63.72,36.18-2.62,72.46-3.9,108.73-3.86-7-22.57-11.96-45.78-14.81-69.24,15.78-6.32,31.55-12.64,47.33-18.96-4.72-8.33-9.45-16.65-14.17-24.98-6.93,3.7-13.86,7.4-20.8,11.1-8.28,4.42-16.67,8.88-25.79,11.08-9.91,2.39-20.27,1.99-30.42,1-17.27-1.69-34.38-5.08-50.99-10.12Z"/>
          <path class="cls-6" d="m547.44,381.64c-1.91,8.77-1.2,17.85-3.11,26.61-.28,1.28.37,2.75,1.75,3.08,5.87,1.38,11.64,3.24,17.16,5.67,1.04.46,2.25.88,3.15,1.59s.54,1.54.2,2.51c-1.02,2.87-2.22,5.69-3.28,8.55-4.29,11.63-7.88,23.51-10.77,35.57-1.62,6.76-3.01,13.57-4.19,20.41-.25,1.47.65,3.29,2.41,3.16,28.25-2.04,56.56-3.28,84.88-3.69,7.95-.12,15.9-.17,23.85-.16,1.58,0,2.89-1.6,2.41-3.16-5.39-17.44-9.59-35.23-12.53-53.25-.83-5.1-1.56-10.21-2.18-15.33l-1.84,2.41c15.78-6.32,31.55-12.64,47.33-18.96,1.49-.6,2.36-2.14,1.49-3.67-4.72-8.33-9.45-16.65-14.17-24.98-.68-1.21-2.24-1.53-3.42-.9-7.75,4.14-15.48,8.29-23.24,12.41-7.34,3.9-14.84,7.66-22.98,9.58-8.33,1.97-16.99,1.88-25.47,1.22s-17.28-1.86-25.82-3.44c-9.64-1.79-19.18-4.11-28.56-6.95-3.09-.93-4.41,3.89-1.33,4.82,17.14,5.18,34.78,8.63,52.61,10.3,8.79.82,17.66,1.09,26.4-.41,8.55-1.47,16.53-5.02,24.19-8.97,8.97-4.62,17.83-9.48,26.73-14.23l-3.42-.9c4.72,8.33,9.45,16.65,14.17,24.98l1.49-3.67c-15.78,6.32-31.55,12.64-47.33,18.96-.93.37-1.98,1.26-1.84,2.41,2.25,18.42,5.72,36.68,10.49,54.61,1.37,5.13,2.84,10.23,4.41,15.29l2.41-3.16c-28.32-.03-56.65.74-84.93,2.33-7.94.45-15.87.96-23.8,1.53l2.41,3.16c2.22-12.92,5.22-25.69,9.02-38.24,1.92-6.35,4.04-12.63,6.36-18.85.55-1.48,1.11-2.95,1.69-4.43.54-1.39,1.23-2.8,1.55-4.26.7-3.29-.93-5.93-3.8-7.46-3.09-1.65-6.49-2.88-9.78-4.04-3.54-1.25-7.14-2.3-10.79-3.16l1.75,3.08c1.91-8.77,1.2-17.85,3.11-26.61.68-3.14-4.13-4.48-4.82-1.33Z"/>
        </g>
        <g>
          <path class="cls-6" d="m572.23,538.85c.12,14.32-.29,28.65-.76,42.96-.52,15.92-1.19,31.83-1.93,47.74-.35,7.53-.71,15.07-1.08,22.6-.16,3.22,4.84,3.21,5,0,.7-14.31,1.38-28.62,1.97-42.93.66-15.91,1.25-31.83,1.59-47.75.16-7.54.26-15.08.2-22.62-.03-3.22-5.03-3.22-5,0h0Z"/>
          <path class="cls-6" d="m571.64,653.5c-10.81-7.14-25-8.94-37.96-8.81-4.38.04-9.25.77-12.01,4.18-1.09,1.34-1.76,3.1-1.47,4.81.48,2.79,3.26,4.56,5.94,5.48,4.6,1.58,9.59,1.69,14.44,1.32,10.6-.81,20.89-3.85,31.05-6.98Z"/>
        </g>
        <g>
          <path class="cls-5" d="m537.39,553.1c26.71-3.13,53.57-4.88,80.46-5.71,20.85-.65,42.43-.62,61.59,7.62-6.34-19.87-12.31-50.93-18.65-70.8-.55-1.72-1.23-3.61-2.84-4.43-1.03-.53-2.24-.51-3.39-.48-32.99.88-65.99,1.77-98.98,2.65-.98.03-2.03.07-2.83.64-1.12.8-1.38,2.32-1.56,3.68-.54,4.25-13.26,62.57-13.8,66.83Z"/>
          <path class="cls-6" d="m537.39,555.6c19.17-2.24,38.43-3.78,57.7-4.78,9.46-.49,18.92-.88,28.39-1.09,8.82-.2,17.67-.16,26.46.69,9.63.93,19.3,2.93,28.23,6.74.95.4,1.91.49,2.78-.2.76-.6,1.2-1.66.9-2.63-6.18-19.44-9.99-39.56-15.29-59.25-1.19-4.41-2.24-9.04-3.98-13.28-1.23-3.01-3.38-4.83-6.71-5.02-3.06-.17-6.21.13-9.27.21-13.1.35-26.2.7-39.29,1.05s-25.86.69-38.8,1.04c-3.23.09-6.47.17-9.7.26-2.77.07-6.26-.34-8.33,1.92-.87.95-1.35,2.21-1.58,3.47-.07.39-.12.79-.17,1.19-.12.91-.01-.16.03-.25-.04.06-.03.21-.04.29-.09.49-.17.98-.26,1.47-2.08,10.96-4.52,21.85-6.83,32.76-2.2,10.38-4.6,20.75-6.48,31.2-.1.57-.19,1.13-.26,1.7-.17,1.34,1.27,2.5,2.5,2.5,1.5,0,2.32-1.15,2.5-2.5-.17,1.31.05-.18.11-.53.12-.66.25-1.31.38-1.97.4-2.02.81-4.04,1.23-6.06,1.21-5.86,2.45-11.71,3.69-17.56,2.47-11.65,4.99-23.3,7.35-34.97.29-1.42.58-2.84.83-4.26.13-.73.19-1.47.36-2.19.18-.76.24-.99,1-1.08,1.55-.17,3.16-.1,4.72-.14,12.68-.34,25.37-.68,38.05-1.02s25.37-.68,38.05-1.02c6.3-.17,12.6-.38,18.9-.51.96-.02,2.03-.18,2.73.61.65.74.9,1.87,1.19,2.78.66,2.08,1.28,4.17,1.88,6.27,5.48,19.18,9.29,38.8,14.79,57.97.6,2.09,1.22,4.17,1.88,6.24l3.67-2.82c-16.64-7.1-34.8-8.39-52.69-8.19-19.22.21-38.46,1.27-57.62,2.75-11.02.85-22.03,1.91-33.01,3.19-1.34.16-2.5,1.04-2.5,2.5,0,1.23,1.15,2.66,2.5,2.5Z"/>
        </g>
        <path class="cls-6" d="m685.81,381.53c16.49-9.32,33.22-18.21,50.19-26.63,4.84-2.4,9.69-4.76,14.56-7.09,1.22-.58,1.54-2.32.9-3.42-.73-1.25-2.2-1.48-3.42-.9-17.09,8.17-33.96,16.78-50.59,25.85-4.74,2.59-9.46,5.21-14.16,7.87-2.8,1.58-.28,5.9,2.52,4.32h0Z"/>
        <path class="cls-6" d="m549.63,394.13c-17.59-7.33-34.88-15.37-51.84-24.06l.9,3.42c6.1-8.4,10.72-17.81,13.73-27.75.93-3.09-3.89-4.41-4.82-1.33-2.89,9.54-7.37,18.49-13.22,26.55-.76,1.05-.22,2.85.9,3.42,17.35,8.89,35.04,17.07,53.04,24.56,1.25.52,2.75-.56,3.08-1.75.4-1.44-.49-2.55-1.75-3.08h0Z"/>
        <g>
          <g>
            <g>
              <g>
                <path class="cls-8" d="m653.35,261.39c-27.7-18.31-71.04-.05-87.52,26.14-16.18,31.96,1.34,79.9,35.06,92.63,62.69,15.17,109.35-84.6,52.46-118.77Z"/>
                <path class="cls-11" d="m596.27,293.12c-20.64-.33-23.94,37.35-7.02,43.96,27.81,8.55,31.1-41.22,7.02-43.96Z"/>
              </g>
              <path class="cls-6" d="m653.75,296.61c-1.42-1.2-3.19-1.93-5.04-2.11-26.77-2.65-32.57,49.29-1.78,46.52.88-.08,1.76-.12,2.64-.18,20.2-1.4,17.22-33.19,4.18-44.23Z"/>
              <path class="cls-4" d="m642.68,337.81c-8.1,0-10.77-9.41-8.55-11.31,6.48-5.76,14.59-9.84,23.05-6.17,0,0,1.89.65,1.89,2.86,0,8.56-1.92,14.62-16.39,14.62Z"/>
              <path class="cls-4" d="m649.79,298.65c9.78,4.99,2.95,9.44-3.31,9.43-2.67,0-4.47-1.28-6.25-2.88-1.97-1.77-1.41-5.32,1.01-6.14,2.88-.98,6.62-1.19,8.55-.4Z"/>
            </g>
            <path class="cls-4" d="m590.81,333.2c3.05.75,6.23.57,9.17-.51,2.69-.98,5.22-2.5,6.01-5.23,13.19-25.61-39.02-.16-15.18,5.74Z"/>
            <path class="cls-4" d="m596.58,309.68c17.29-.2,2.57-17.1-5.43-11.04-1.35,1.02-1.92,2.79-1.41,4.41,1.03,3.27,3.21,6.48,6.84,6.63Z"/>
          </g>
          <path class="cls-6" d="m608.36,353.85c8.14,0,16.27,0,24.41,0,3.22,0,3.22-5,0-5-8.14,0-16.27,0-24.41,0-3.22,0-3.22,5,0,5h0Z"/>
        </g>
        <g>
          <g>
            <path class="cls-6" d="m484,308.11c-2.5,9.46-6.01,19.28-3.67,28.79.53,2.14,1.45,4.34,3.29,5.56,1.37.9,3.05,1.14,4.68,1.36,13.21,1.76,26.43,3.51,39.64,5.27,1.79.24,3.67.47,5.35-.2,2.34-.93,3.7-3.33,4.78-5.61,11.09-23.37,11.96-50.23,19.83-74.87,2.54-7.95,5.06-18.41-1.78-23.2-2.17-1.52-4.87-2.02-7.48-2.46-16.04-2.68-28.42-5.63-44.67-5.83-2.12-.03-4.36,0-6.16,1.11-1.99,1.23-3.02,3.53-3.85,5.72-2.42,6.38-5.88,48.99-9.95,64.35Z"/>
            <path class="cls-6" d="m481.59,307.45c-1.78,6.7-3.95,13.37-4.44,20.33-.39,5.55.06,13.93,5.56,17.06,2.93,1.67,6.79,1.65,10.05,2.08,3.63.48,7.27.97,10.9,1.45,7.1.94,14.21,1.89,21.31,2.83,3.4.45,7.05,1.3,10.23-.45,2.54-1.4,4.04-4.07,5.23-6.6,2.72-5.79,4.88-11.83,6.64-17.97,3.56-12.39,5.59-25.15,8.27-37.74,1.34-6.3,2.84-12.57,4.77-18.72,1.54-4.91,3.09-10.05,2.91-15.25-.18-5.38-2.62-10.32-7.75-12.53-2.94-1.27-6.16-1.6-9.29-2.15-3.3-.57-6.6-1.17-9.9-1.76-6.23-1.11-12.48-2.14-18.78-2.8-3.32-.35-6.65-.59-9.99-.72-3.11-.11-6.54-.44-9.49.75-6.66,2.7-7.34,11.75-8.22,17.89-2.41,16.73-3.66,33.49-7.04,50.02-.29,1.43-.61,2.86-.98,4.28-.82,3.11,4,4.44,4.82,1.33,1.81-6.9,2.74-14.06,3.71-21.12,1.18-8.57,2.21-17.16,3.31-25.75.12-.92.24-1.85.36-2.77.14-1.04.17-1.26.3-2.22.22-1.64.46-3.28.71-4.91.34-2.23.67-4.5,1.27-6.68.39-1.41.98-2.91,1.87-4.08,1.55-2.04,4.19-1.86,6.5-1.83,6.11.1,12.22.6,18.27,1.45s12.03,1.96,18.03,3.03c3.09.55,6.22.99,9.29,1.63,2.32.48,4.69,1.25,6.19,3.14,2.52,3.19,1.99,8.09,1.19,11.97-1.09,5.29-3.02,10.39-4.37,15.62-3.05,11.78-4.97,23.81-7.58,35.69-1.3,5.9-2.77,11.77-4.63,17.52-.95,2.93-2,5.84-3.19,8.69-.97,2.33-1.93,5.03-3.53,7.02-1.83,2.28-4.59,1.61-7.16,1.27-3.3-.44-6.61-.88-9.91-1.32-6.86-.91-13.71-1.82-20.57-2.73-3.16-.42-6.43-.65-9.55-1.33-2.6-.57-3.58-2.39-4.19-4.84-1.51-6.07-.31-12.42,1.2-18.36.78-3.05,1.66-6.06,2.47-9.1s-3.99-4.44-4.82-1.33Z"/>
          </g>
          <path class="cls-10" d="m544.92,282.77c-9.86.93-15.66-11.08-15.93-19.7,8.09,93.97-59.35,40.66-15.72,25.08"/>
        </g>
      </g>
    </g>
    <g>
      <path class="cls-9" d="m26.57,412.43c-10.52-4.74-22.02,11.27-13.14,19.15,4.26,4.14,12.49,2.36,16.25-1.71,3.9-5.08,2.4-14.09-3.11-17.44Z"/>
      <g>
        <g>
          <path class="cls-6" d="m258.75,612.85c7.03,7.35,13.73,15.18,19.81,23.33,7.76,10.41,13.1,22.64,17.81,34.66,3.07,7.84,5.84,15.8,8.6,23.76.44,1.28,1.71,2.12,3.08,1.75,1.24-.34,2.19-1.79,1.75-3.08-4.98-14.36-10-28.77-16.74-42.42-2.73-5.53-5.66-11.02-9.3-16.01-3.26-4.49-6.78-8.79-10.36-13.03s-7.25-8.47-11.11-12.5c-2.23-2.33-5.76,1.21-3.54,3.54h0Z"/>
          <path class="cls-6" d="m190.05,623.86c2.34,10.6,3.7,21.5,4.75,32.29.53,5.44.6,10.89,1.09,16.33.66,7.41,2.12,14.71,4.12,21.86,2.26,8.08,5.14,15.97,7.95,23.88.45,1.27,1.71,2.12,3.08,1.75,1.23-.34,2.2-1.8,1.75-3.08-4.94-13.87-10.14-27.87-11.72-42.61-.6-5.59-.62-11.22-1.14-16.82-.56-5.97-1.3-11.93-2.14-17.87s-1.68-11.43-2.92-17.07c-.69-3.14-5.51-1.81-4.82,1.33h0Z"/>
          <path class="cls-7" d="m166.1,572.29c.03,15.27-.57,49.37-.54,64.64,13.56-8.81,31.45-10.55,46.45-4.52.16-13.53,2.3-27.03,6.34-39.94,5.35,13.56,10.07,27.38,14.12,41.38,15.22-10.95,33.38-17.77,52.04-19.56-5.51-12.27-11.03-24.54-16.54-36.81-.68-1.51-8.99-15.17-10.42-16-2.3-1.34-20.84-23.33-50.64-17.77-12.66,2.37-22.09,21.58-40.83,28.58Z"/>
          <path class="cls-15" d="m98.33,459.09c13.75,15.27,43.53,24.91,51.76,43.74,2.05,4.7,2.94,9.81,3.67,14.88,2.77,19.28,3.46,38.85,2.07,58.28,34.78-12.77,73.3-25.59,107.95-12.45,3.67-4.59,1.62-11.31-.67-16.72-6.96-16.39-14.86-32.39-23.64-47.88,9.52,2.9,19.03,5.8,28.55,8.7.75-8.93,6.92-29.49,7.67-38.42-17.02-10.59-39.44-9.53-56.46-20.12-8.8,10.44-24.58,11.16-38.09,9.14-19.49-2.91-38.38-9.81-55.16-20.14-2.19-1.35-4.62-2.81-7.15-2.35-1.79.33-3.25,1.58-4.58,2.82-6.34,5.94-11.74,12.89-15.92,20.51Z"/>
          <path class="cls-6" d="m210.38,717.55c-10.81-9.46-28.26-12.4-42.61-12.97-9.56-.37-19.18,1.49-27.94,5.31-6.47,2.82-6.67,11.92-.37,15.1,9.06,4.58,19.18,7.09,29.34,7.14,14.98.08,29.94-5.17,41.58-14.59Z"/>
          <path class="cls-6" d="m308.09,694.8c.05-2.98,2.12-5.5,4.09-7.73,13.67-15.55,29-31.52,49.17-36.23.86-.2,1.77-.38,2.6-.1,1.88.62,2.34,3.08,2.18,5.06-.74,8.75-7.18,15.9-13.88,21.58-12.49,10.59-28.25,18.92-44.55,17.32l.39.11Z"/>
        </g>
        <g>
          <g>
            <g>
              <path class="cls-16" d="m235.16,353.99c-15.36-26.86-57.9-46.92-86.34-29.8-58.28,31.74-15.86,133.4,47.41,120.88,34.23-11.3,53.76-58.47,38.93-91.08Z"/>
              <path class="cls-11" d="m204.51,358.3c-24.17,1.72-22.98,51.59,5.17,44.21,17.18-5.88,15.47-43.67-5.17-44.21Z"/>
            </g>
            <path class="cls-6" d="m151.9,355.93c-1.98.12-3.89.81-5.46,2.03-14.38,11.16-18.98,44.88,2.47,47.27.93.11,1.87.2,2.8.32,32.66,4.33,28.82-51.24.19-49.62Z"/>
            <path class="cls-4" d="m156.27,401c8.1.34,11.16-8.95,9.02-10.94-6.23-6.03-14.16-10.44-22.77-7.14,0,0-1.92.57-2.01,2.77-.36,8.56,1.3,14.69,15.76,15.3Z"/>
            <path class="cls-4" d="m150.8,361.57c-9.99,4.57-3.35,9.3,2.91,9.56,2.67.11,4.52-1.09,6.36-2.61,2.05-1.69,1.63-5.25-.75-6.18-2.84-1.1-6.56-1.47-8.53-.76Z"/>
          </g>
          <path class="cls-4" d="m193.36,392.2c.67,2.76,3.14,4.38,5.78,5.48,2.9,1.2,6.07,1.52,9.14.9,24.07-4.89-27.03-32.52-14.92-6.38Z"/>
          <path class="cls-4" d="m210.62,368.49c.57-1.59.08-3.38-1.23-4.46-7.74-6.39-23.15,9.87-5.89,10.8,3.64,0,5.95-3.11,7.12-6.34Z"/>
        </g>
        <path class="cls-6" d="m272.97,491.67c12.61.19,25.13,1.86,37.35,4.98,1.21.31,2.84-.39,3.08-1.75,3.15-18.08,6.29-36.16,9.44-54.24.23-1.33-.36-2.69-1.75-3.08-1.2-.33-2.84.41-3.08,1.75-3.15,18.08-6.29,36.16-9.44,54.24l3.08-1.75c-12.63-3.22-25.64-4.96-38.68-5.16-3.22-.05-3.22,4.95,0,5h0Z"/>
        <path class="cls-6" d="m102.19,444.04c-17.52-5.79-35.31-10.79-53.29-14.93-5.1-1.18-10.22-2.29-15.36-3.33-1.32-.27-2.7.38-3.08,1.75-.34,1.23.42,2.8,1.75,3.08,18.09,3.68,36,8.19,53.67,13.52,5.01,1.51,10.01,3.1,14.98,4.74,3.06,1.01,4.37-3.81,1.33-4.82h0Z"/>
        <g>
          <g>
            <path class="cls-6" d="m295.21,413.88c-2.5,9.46-6.01,19.28-3.67,28.79.53,2.14,1.45,4.34,3.29,5.56,1.37.9,3.05,1.14,4.68,1.36,13.21,1.76,26.43,3.51,39.64,5.27,1.79.24,3.67.47,5.35-.2,2.34-.93,3.7-3.33,4.78-5.61,11.09-23.37,11.96-50.23,19.83-74.87,2.54-7.95,5.06-18.41-1.78-23.2-2.17-1.52-4.87-2.02-7.48-2.46-16.04-2.68-28.42-5.63-44.67-5.83-2.12-.03-4.36,0-6.16,1.11-1.99,1.23-3.02,3.53-3.85,5.72-2.42,6.38-5.88,48.99-9.95,64.35Z"/>
            <path class="cls-6" d="m292.8,413.22c-1.78,6.7-3.95,13.37-4.44,20.33-.39,5.55.06,13.93,5.56,17.06,2.93,1.67,6.79,1.65,10.05,2.08,3.63.48,7.27.97,10.9,1.45,7.1.94,14.21,1.89,21.31,2.83,3.4.45,7.05,1.3,10.23-.45,2.54-1.4,4.04-4.07,5.23-6.6,2.72-5.79,4.88-11.83,6.64-17.97,3.56-12.39,5.59-25.15,8.27-37.74,1.34-6.3,2.84-12.57,4.77-18.72,1.54-4.91,3.09-10.05,2.91-15.25-.18-5.38-2.62-10.32-7.75-12.53-2.94-1.27-6.16-1.6-9.29-2.15-3.3-.57-6.6-1.17-9.9-1.76-6.23-1.11-12.48-2.14-18.78-2.8-3.32-.35-6.65-.59-9.99-.72-3.11-.11-6.54-.44-9.49.75-6.66,2.7-7.34,11.75-8.22,17.89-2.41,16.73-3.66,33.49-7.04,50.02-.29,1.43-.61,2.86-.98,4.28-.82,3.11,4,4.44,4.82,1.33,1.81-6.9,2.74-14.06,3.71-21.12,1.18-8.57,2.21-17.16,3.31-25.75.12-.92.24-1.85.36-2.77.14-1.04.17-1.26.3-2.22.22-1.64.46-3.28.71-4.91.34-2.23.67-4.5,1.27-6.68.39-1.41.98-2.91,1.87-4.08,1.55-2.04,4.19-1.86,6.5-1.83,6.11.1,12.22.6,18.27,1.45s12.03,1.96,18.03,3.03c3.09.55,6.22.99,9.29,1.63,2.32.48,4.69,1.25,6.19,3.14,2.52,3.19,1.99,8.09,1.19,11.97-1.09,5.29-3.02,10.39-4.37,15.62-3.05,11.78-4.97,23.81-7.58,35.69-1.3,5.9-2.77,11.77-4.63,17.52-.95,2.93-2,5.84-3.19,8.69-.97,2.33-1.93,5.03-3.53,7.02-1.83,2.28-4.59,1.61-7.16,1.27-3.3-.44-6.61-.88-9.91-1.32-6.86-.91-13.71-1.82-20.57-2.73-3.16-.42-6.43-.65-9.55-1.33-2.6-.57-3.58-2.39-4.19-4.84-1.51-6.07-.31-12.42,1.2-18.36.78-3.05,1.66-6.06,2.47-9.1s-3.99-4.44-4.82-1.33Z"/>
          </g>
          <path class="cls-10" d="m355.89,388.19c-9.86.93-15.66-11.08-15.93-19.7,8.09,93.97-59.35,40.66-15.72,25.08"/>
        </g>
      </g>
    </g>
    <path class="cls-6" d="m176.46,436.08c8.14,0,16.27,0,24.41,0,3.22,0,3.22-5,0-5-8.14,0-16.27,0-24.41,0-3.22,0-3.22,5,0,5h0Z"/>
    <g>
      <g>
        <path class="cls-1" d="m292.2,264.59c-4.05-.55-8.41-.27-11.86,1.92-3.45,2.19-5.65,6.68-4.27,10.52l-.85,2.7c-4.94-.17-8.94,4.91-8.94,9.85,0,4.45,2.09,12.32,10.14,12.32,3.41,0,1.07,5.38,3.95,7.2l1.47-.41c.58,3.5,2.98,6.59,6.11,8.27s6.91,1.97,10.34,1.07c1.43-.38,2.28-.89,3.43-1.83.15-.13.49-.51.68-.62.06-.03.12-.05.18-.02.84.37,4.69,1.96,7.03.97,2.65-1.11,4.44-3.59,5.95-6.03,1.62-2.62,3.1-5.44,3.36-8.5l1.94,1.36c1.49,1.42,4.16.54,5.25-1.2s1.05-3.94.93-5.99c-.13-2.19-.41-4.58-1.98-6.1-2.02-1.95-5.23-1.65-8-1.23l2.55-3.3c1.68-2.28,1.64-5.67-.09-7.91-1.73-2.24-5-3.13-7.63-2.07l.34-.28c.36-3.47.62-7.31-1.49-10.09-2.36-3.11-6.85-3.67-10.72-3.12-2.51.36-5.06,1.13-6.94,2.83s-2.93,4.51-2,6.87"/>
        <path class="cls-6" d="m292.2,262.09c-4.92-.64-10.25-.06-14.26,3.09-3.68,2.88-5.79,7.95-4.28,12.52v-1.33c-.28.9-.57,1.8-.85,2.7l2.41-1.84c-4.38-.04-8.24,2.85-10.08,6.72-1.55,3.25-1.62,6.77-.78,10.22.78,3.21,2.47,6.17,5.15,8.14,1.43,1.05,3.14,1.68,4.89,1.93.56.08,1.11.14,1.67.16-.11,0,.59.03.6.02-.06.07-.4-.06-.46-.11-.19-.14-.22-.25-.37-.39.24.23.05.11,0-.08.08.35.19.7.26,1.06.01.08.07.48,0,.05.03.21.05.41.08.62.07.51.13,1.03.23,1.53.18.88.5,1.76,1,2.51.82,1.22,2.08,2.23,3.63,1.91.5-.1.98-.27,1.47-.41l-3.08-1.75c.96,5.2,5.05,9.33,10,10.92,2.74.87,5.68.93,8.48.4,1.25-.24,2.5-.63,3.6-1.27.98-.57,1.76-1.36,2.64-2.06l-1.77.73.18-.02-1.26-.34c1.84.8,3.72,1.42,5.73,1.6,2.67.23,4.98-.94,6.91-2.7s3.3-3.98,4.55-6.18c1.52-2.64,2.6-5.39,2.91-8.44l-3.76,2.16c.63.44,1.26.87,1.88,1.32-.58-.42.27.24.54.4.35.2.74.38,1.13.48.91.25,1.87.26,2.79.06,3.87-.81,5.51-4.56,5.6-8.17.08-3.37-.23-7.45-2.77-9.95-2.79-2.75-6.89-2.4-10.43-1.87l2.82,3.67c2.13-2.77,4.39-5.29,4.09-9.08-.46-5.85-6.48-9.93-12.09-7.87l2.43,4.18c1.47-1.2,1.3-3.8,1.32-5.59.02-2.12-.26-4.23-1.13-6.17-1.68-3.76-5.39-5.61-9.31-6.07s-8.19.25-11.45,2.29c-3.5,2.2-5.86,6.52-4.42,10.65.45,1.27,1.71,2.12,3.08,1.75,1.24-.34,2.19-1.8,1.75-3.08-.82-2.34.8-4.33,2.81-5.39,2.21-1.17,5.05-1.47,7.51-1.28,2.13.16,4.35,1.01,5.39,2.99,1.22,2.34.78,5.35.53,7.86l.73-1.77-.34.28c-1.91,1.57.14,5.02,2.43,4.18,3.09-1.13,6.4,1.13,5.7,4.58-.38,1.86-2.23,3.57-3.35,5.03-.59.77-.35,2.09.2,2.78.68.85,1.59,1.05,2.63.9,1.66-.25,4.2-.68,5.57.59,1.44,1.33,1.31,4.22,1.31,6,0,.99-.02,2.23-.65,3.07-.15.2-.4.42-.71.55,0,0-.8.14-.46.14.17,0-.36-.16-.18-.03.22.16-.31-.23-.49-.37-.16-.12-.33-.23-.49-.35l-1.44-1.01c-1.71-1.2-3.59.46-3.76,2.16-.23,2.19-1.25,4.23-2.34,6.1-1.03,1.78-2.13,3.57-3.66,4.97-1.28,1.17-2.41,1.47-4.06,1.11-.78-.17-1.54-.42-2.29-.7-.14-.05-.27-.1-.4-.16.33.14.38.16.17.07-.61-.26-1.12-.39-1.77-.28-.99.18-1.48.8-2.21,1.39-.66.55-1.41.89-2.23,1.11-2.03.55-4.22.56-6.25.02-3.68-.99-6.43-3.85-7.12-7.6-.24-1.33-1.86-2.08-3.08-1.75l-1.47.41,1.93.25c.14.1-.07-.09-.04-.06-.07-.08-.14-.22-.17-.31.02.05.12.31.03.03s-.16-.56-.21-.84c-.02-.12-.04-.25-.06-.37-.07-.42.04.34-.01-.08-.18-1.31-.25-2.67-.95-3.84-1.61-2.7-5.01-1.65-7.14-2.82-1.8-.99-2.97-2.8-3.58-4.72-.17-.52-.3-1.04-.42-1.57-.05-.24-.09-.47-.14-.71-.02-.12-.04-.23-.06-.35.07.49,0-.03,0-.13-.09-1.12-.14-2.22.13-3.32.73-2.9,3.07-5.65,6.22-5.62,1.13.01,2.08-.79,2.41-1.84.39-1.23,1.14-2.72.85-4.03-.45-2.07-.29-3.73.93-5.55,2.75-4.1,8.38-4.3,12.79-3.73,1.34.17,2.5-1.27,2.5-2.5,0-1.5-1.15-2.33-2.5-2.5h0Z"/>
      </g>
      <g>
        <path class="cls-13" d="m281.92,278.88c-1.99,4.55-1.73,11.65-1.82,15.54.08,1.17.94,2.64,2.01,3.08.89.44,1.69.53,2.78.54,2.4.01,4.65-1.31,5.68-3.47.56-1.19.9-2.48,1.26-3.64.36-1.66.97-4.21,1.22-6.81-3.45-2.46-7.13-4.52-11.13-5.22Z"/>
        <path class="cls-14" d="m290.18,303.76c-.62.06-1.05.64-.92,1.25.15.71.46,1.59,1.11,2.41,1.48,1.86,3.71,2.17,4.88,2.19.44,0,.87-.18,1.14-.53,1.88-2.39,4.6-4.26,7.66-5.82.47-.24.25-.95-.27-.89-4.54.46-9.07.93-13.61,1.39Z"/>
        <path class="cls-1" d="m289.39,288.21c.27,2.49-2.98,3.69-3.62.94-.45-1.33.57-2.88,1.92-2.99.83.41,1.87.98,1.7,2.04Z"/>
      </g>
      <g>
        <path class="cls-13" d="m309.05,279.85c1.99,4.55,1.73,11.65,1.82,15.54-.08,1.17-.94,2.64-2.01,3.08-1.13.56-2.31.68-3.44.31-.51-.17-1.05-.24-1.58-.33-2.73-.49-3.97-4.19-4.7-6.55-.36-1.66-.97-4.21-1.22-6.81,3.45-2.46,7.13-4.52,11.13-5.22Z"/>
        <path class="cls-1" d="m301.58,289.18c-.27,2.49,2.98,3.69,3.62.94.45-1.33-.57-2.88-1.92-2.99-.83.41-1.87.98-1.7,2.04Z"/>
      </g>
    </g>
    <g>
      <g>
        <path class="cls-1" d="m410.97,353.76c-4.05-.55-8.41-.27-11.86,1.92-3.45,2.19-5.65,6.68-4.27,10.52l-.85,2.7c-4.94-.17-8.94,4.91-8.94,9.85,0,4.45,2.09,12.32,10.14,12.32,3.41,0,1.07,5.38,3.95,7.2l1.47-.41c.58,3.5,2.98,6.59,6.11,8.27,3.13,1.67,6.91,1.97,10.34,1.07,1.43-.38,2.28-.89,3.43-1.83.15-.13.49-.51.68-.62.06-.03.12-.05.18-.02.84.37,4.69,1.96,7.03.97,2.65-1.11,4.44-3.59,5.95-6.03,1.62-2.62,3.1-5.44,3.36-8.5l1.94,1.36c1.49,1.42,4.16.54,5.25-1.2,1.09-1.74,1.05-3.94.93-5.99-.13-2.19-.41-4.58-1.98-6.1-2.02-1.95-5.23-1.65-8-1.23l2.55-3.3c1.68-2.28,1.64-5.67-.09-7.91-1.73-2.24-5-3.13-7.63-2.07l.34-.28c.36-3.47.62-7.31-1.49-10.09-2.36-3.11-6.85-3.67-10.72-3.12-2.51.36-5.06,1.13-6.94,2.83-1.88,1.7-2.93,4.51-2,6.87"/>
        <path class="cls-6" d="m410.97,351.26c-4.92-.64-10.25-.06-14.26,3.09-3.68,2.88-5.79,7.95-4.28,12.52v-1.33c-.28.9-.57,1.8-.85,2.7l2.41-1.84c-4.38-.04-8.24,2.85-10.08,6.72-1.55,3.25-1.62,6.77-.78,10.22.78,3.21,2.47,6.17,5.15,8.14,1.43,1.05,3.14,1.68,4.89,1.93.56.08,1.11.14,1.67.16-.11,0,.59.03.6.02-.06.07-.4-.06-.46-.11-.19-.14-.22-.25-.37-.39.24.23.05.11,0-.08.08.35.19.7.26,1.06.01.08.07.48,0,.05.03.21.05.41.08.62.07.51.13,1.03.23,1.53.18.88.5,1.76,1,2.51.82,1.22,2.08,2.23,3.63,1.91.5-.1.98-.27,1.47-.41l-3.08-1.75c.96,5.2,5.05,9.33,10,10.92,2.74.87,5.68.93,8.48.4,1.25-.24,2.5-.63,3.6-1.27.98-.57,1.76-1.36,2.64-2.06l-1.77.73.18-.02-1.26-.34c1.84.8,3.72,1.42,5.73,1.6,2.67.23,4.98-.94,6.91-2.7s3.3-3.98,4.55-6.18c1.52-2.64,2.6-5.39,2.91-8.44l-3.76,2.16c.63.44,1.26.87,1.88,1.32-.58-.42.27.24.54.4.35.2.74.38,1.13.48.91.25,1.87.26,2.79.06,3.87-.81,5.51-4.56,5.6-8.17.08-3.37-.23-7.45-2.77-9.95-2.79-2.75-6.89-2.4-10.43-1.87l2.82,3.67c2.13-2.77,4.39-5.29,4.09-9.08-.46-5.85-6.48-9.93-12.09-7.87l2.43,4.18c1.47-1.2,1.3-3.8,1.32-5.59.02-2.12-.26-4.23-1.13-6.17-1.68-3.76-5.39-5.61-9.31-6.07s-8.19.25-11.45,2.29c-3.5,2.2-5.86,6.52-4.42,10.65.45,1.27,1.71,2.12,3.08,1.75,1.24-.34,2.19-1.8,1.75-3.08-.82-2.34.8-4.33,2.81-5.39,2.21-1.17,5.05-1.47,7.51-1.28,2.13.16,4.35,1.01,5.39,2.99,1.22,2.34.78,5.35.53,7.86l.73-1.77-.34.28c-1.91,1.57.14,5.02,2.43,4.18,3.09-1.13,6.4,1.13,5.7,4.58-.38,1.86-2.23,3.57-3.35,5.03-.59.77-.35,2.09.2,2.78.68.85,1.59,1.05,2.63.9,1.66-.25,4.2-.68,5.57.59,1.44,1.33,1.31,4.22,1.31,6,0,.99-.02,2.23-.65,3.07-.15.2-.4.42-.71.55,0,0-.8.14-.46.14.17,0-.36-.16-.18-.03.22.16-.31-.23-.49-.37-.16-.12-.33-.23-.49-.35l-1.44-1.01c-1.71-1.2-3.59.46-3.76,2.16-.23,2.19-1.25,4.23-2.34,6.1-1.03,1.78-2.13,3.57-3.66,4.97-1.28,1.17-2.41,1.47-4.06,1.11-.78-.17-1.54-.42-2.29-.7-.14-.05-.27-.1-.4-.16.33.14.38.16.17.07-.61-.26-1.12-.39-1.77-.28-.99.18-1.48.8-2.21,1.39-.66.55-1.41.89-2.23,1.11-2.03.55-4.22.56-6.25.02-3.68-.99-6.43-3.85-7.12-7.6-.24-1.33-1.86-2.08-3.08-1.75l-1.47.41,1.93.25c.14.1-.07-.09-.04-.06-.07-.08-.14-.22-.17-.31.02.05.12.31.03.03s-.16-.56-.21-.84c-.02-.12-.04-.25-.06-.37-.07-.42.04.34-.01-.08-.18-1.31-.25-2.67-.95-3.84-1.61-2.7-5.01-1.65-7.14-2.82-1.8-.99-2.97-2.8-3.58-4.72-.17-.52-.3-1.04-.42-1.57-.05-.24-.09-.47-.14-.71-.02-.12-.04-.23-.06-.35.07.49,0-.03,0-.13-.09-1.12-.14-2.22.13-3.32.73-2.9,3.07-5.65,6.22-5.62,1.13.01,2.08-.79,2.41-1.84.39-1.23,1.14-2.72.85-4.03-.45-2.07-.29-3.73.93-5.55,2.75-4.1,8.38-4.3,12.79-3.73,1.34.17,2.5-1.27,2.5-2.5,0-1.5-1.15-2.33-2.5-2.5h0Z"/>
      </g>
      <g>
        <path class="cls-13" d="m400.69,368.05c-1.99,4.55-1.73,11.65-1.82,15.54.08,1.17.94,2.64,2.01,3.08.89.44,1.69.53,2.78.54,2.4.01,4.65-1.31,5.68-3.47.56-1.19.9-2.48,1.26-3.64.36-1.66.97-4.21,1.22-6.81-3.45-2.46-7.13-4.52-11.13-5.22Z"/>
        <path class="cls-14" d="m408.95,392.93c-.62.06-1.05.64-.92,1.25.15.71.46,1.59,1.11,2.41,1.48,1.86,3.71,2.17,4.88,2.19.44,0,.87-.18,1.14-.53,1.88-2.39,4.6-4.26,7.66-5.82.47-.24.25-.95-.27-.89-4.54.46-9.07.93-13.61,1.39Z"/>
        <path class="cls-1" d="m408.16,377.39c.27,2.49-2.98,3.69-3.62.94-.45-1.33.57-2.88,1.92-2.99.83.41,1.87.98,1.7,2.04Z"/>
      </g>
      <g>
        <path class="cls-13" d="m427.82,369.02c1.99,4.55,1.73,11.65,1.82,15.54-.08,1.17-.94,2.64-2.01,3.08-1.13.56-2.31.68-3.44.31-.51-.17-1.05-.24-1.58-.33-2.73-.49-3.97-4.19-4.7-6.55-.36-1.66-.97-4.21-1.22-6.81,3.45-2.46,7.13-4.52,11.13-5.22Z"/>
        <path class="cls-1" d="m420.34,378.35c-.27,2.49,2.98,3.69,3.62.94.45-1.33-.57-2.88-1.92-2.99-.83.41-1.87.98-1.7,2.04Z"/>
      </g>
    </g>
    <g>
      <g>
        <path class="cls-1" d="m28.39,308.12c-4.05-.55-8.41-.27-11.86,1.92-3.45,2.19-5.65,6.68-4.27,10.52l-.85,2.7c-4.94-.17-8.94,4.91-8.94,9.85,0,4.45,2.09,12.32,10.14,12.32,3.41,0,1.07,5.38,3.95,7.2l1.47-.41c.58,3.5,2.98,6.59,6.11,8.27,3.13,1.67,6.91,1.97,10.34,1.07,1.43-.38,2.28-.89,3.43-1.83.15-.13.49-.51.68-.62.06-.03.12-.05.18-.02.84.37,4.69,1.96,7.03.97,2.65-1.11,4.44-3.59,5.95-6.03,1.62-2.62,3.1-5.44,3.36-8.5l1.94,1.36c1.49,1.42,4.16.54,5.25-1.2s1.05-3.94.93-5.99c-.13-2.19-.41-4.58-1.98-6.1-2.02-1.95-5.23-1.65-8-1.23l2.55-3.3c1.68-2.28,1.64-5.67-.09-7.91-1.73-2.24-5-3.13-7.63-2.07l.34-.28c.36-3.47.62-7.31-1.49-10.09-2.36-3.11-6.85-3.67-10.72-3.12-2.51.36-5.06,1.13-6.94,2.83-1.88,1.7-2.93,4.51-2,6.87"/>
        <path class="cls-6" d="m28.39,305.62c-4.92-.64-10.25-.06-14.26,3.09-3.68,2.88-5.79,7.95-4.28,12.52v-1.33c-.28.9-.57,1.8-.85,2.7l2.41-1.84c-4.38-.04-8.24,2.85-10.08,6.72-1.55,3.25-1.62,6.77-.78,10.22.78,3.21,2.47,6.17,5.15,8.14,1.43,1.05,3.14,1.68,4.89,1.93.56.08,1.11.14,1.67.16-.11,0,.59.03.6.02-.06.07-.4-.06-.46-.11-.19-.14-.22-.25-.37-.39.24.23.05.11,0-.08.08.35.19.7.26,1.06.01.08.07.48,0,.05.03.21.05.41.08.62.07.51.13,1.03.23,1.53.18.88.5,1.76,1,2.51.82,1.22,2.08,2.23,3.63,1.91.5-.1.98-.27,1.47-.41l-3.08-1.75c.96,5.2,5.05,9.33,10,10.92,2.74.87,5.68.93,8.48.4,1.25-.24,2.5-.63,3.6-1.27.98-.57,1.76-1.36,2.64-2.06l-1.77.73.18-.02-1.26-.34c1.84.8,3.72,1.42,5.73,1.6,2.67.23,4.98-.94,6.91-2.7s3.3-3.98,4.55-6.18c1.52-2.64,2.6-5.39,2.91-8.44l-3.76,2.16c.63.44,1.26.87,1.88,1.32-.58-.42.27.24.54.4.35.2.74.38,1.13.48.91.25,1.87.26,2.79.06,3.87-.81,5.51-4.56,5.6-8.17.08-3.37-.23-7.45-2.77-9.95-2.79-2.75-6.89-2.4-10.43-1.87l2.82,3.67c2.13-2.77,4.39-5.29,4.09-9.08-.46-5.85-6.48-9.93-12.09-7.87l2.43,4.18c1.47-1.2,1.3-3.8,1.32-5.59.02-2.12-.26-4.23-1.13-6.17-1.68-3.76-5.39-5.61-9.31-6.07s-8.19.25-11.45,2.29c-3.5,2.2-5.86,6.52-4.42,10.65.45,1.27,1.71,2.12,3.08,1.75,1.24-.34,2.19-1.8,1.75-3.08-.82-2.34.8-4.33,2.81-5.39,2.21-1.17,5.05-1.47,7.51-1.28,2.13.16,4.35,1.01,5.39,2.99,1.22,2.34.78,5.35.53,7.86l.73-1.77-.34.28c-1.91,1.57.14,5.02,2.43,4.18,3.09-1.13,6.4,1.13,5.7,4.58-.38,1.86-2.23,3.57-3.35,5.03-.59.77-.35,2.09.2,2.78.68.85,1.59,1.05,2.63.9,1.66-.25,4.2-.68,5.57.59,1.44,1.33,1.31,4.22,1.31,6,0,.99-.02,2.23-.65,3.07-.15.2-.4.42-.71.55,0,0-.8.14-.46.14.17,0-.36-.16-.18-.03.22.16-.31-.23-.49-.37-.16-.12-.33-.23-.49-.35l-1.44-1.01c-1.71-1.2-3.59.46-3.76,2.16-.23,2.19-1.25,4.23-2.34,6.1-1.03,1.78-2.13,3.57-3.66,4.97-1.28,1.17-2.41,1.47-4.06,1.11-.78-.17-1.54-.42-2.29-.7-.14-.05-.27-.1-.4-.16.33.14.38.16.17.07-.61-.26-1.12-.39-1.77-.28-.99.18-1.48.8-2.21,1.39-.66.55-1.41.89-2.23,1.11-2.03.55-4.22.56-6.25.02-3.68-.99-6.43-3.85-7.12-7.6-.24-1.33-1.86-2.08-3.08-1.75l-1.47.41,1.93.25c.14.1-.07-.09-.04-.06-.07-.08-.14-.22-.17-.31.02.05.12.31.03.03s-.16-.56-.21-.84c-.02-.12-.04-.25-.06-.37-.07-.42.04.34-.01-.08-.18-1.31-.25-2.67-.95-3.84-1.61-2.7-5.01-1.65-7.14-2.82-1.8-.99-2.97-2.8-3.58-4.72-.17-.52-.3-1.04-.42-1.57-.05-.24-.09-.47-.14-.71-.02-.12-.04-.23-.06-.35.07.49,0-.03,0-.13-.09-1.12-.14-2.22.13-3.32.73-2.9,3.07-5.65,6.22-5.62,1.13.01,2.08-.79,2.41-1.84.39-1.23,1.14-2.72.85-4.03-.45-2.07-.29-3.73.93-5.55,2.75-4.1,8.38-4.3,12.79-3.73,1.34.17,2.5-1.27,2.5-2.5,0-1.5-1.15-2.33-2.5-2.5h0Z"/>
      </g>
      <g>
        <path class="cls-13" d="m18.1,322.41c-1.99,4.55-1.73,11.65-1.82,15.54.08,1.17.94,2.64,2.01,3.08.89.44,1.69.53,2.78.54,2.4.01,4.65-1.31,5.68-3.47.56-1.19.9-2.48,1.26-3.64.36-1.66.97-4.21,1.22-6.81-3.45-2.46-7.13-4.52-11.13-5.22Z"/>
        <path class="cls-14" d="m26.36,347.29c-.62.06-1.05.64-.92,1.25.15.71.46,1.59,1.11,2.41,1.48,1.86,3.71,2.17,4.88,2.19.44,0,.87-.18,1.14-.53,1.88-2.39,4.6-4.26,7.66-5.82.47-.24.25-.95-.27-.89-4.54.46-9.07.93-13.61,1.39Z"/>
        <path class="cls-1" d="m25.57,331.75c.27,2.49-2.98,3.69-3.62.94-.45-1.33.57-2.88,1.92-2.99.83.41,1.87.98,1.7,2.04Z"/>
      </g>
      <g>
        <path class="cls-13" d="m45.23,323.38c1.99,4.55,1.73,11.65,1.82,15.54-.08,1.17-.94,2.64-2.01,3.08-1.13.56-2.31.68-3.44.31-.51-.17-1.05-.24-1.58-.33-2.73-.49-3.97-4.19-4.7-6.55-.36-1.66-.97-4.21-1.22-6.81,3.45-2.46,7.13-4.52,11.13-5.22Z"/>
        <path class="cls-1" d="m37.76,332.72c-.27,2.49,2.98,3.69,3.62.94.45-1.33-.57-2.88-1.92-2.99-.83.41-1.87.98-1.7,2.04Z"/>
      </g>
    </g>
    <g>
      <g>
        <path class="cls-1" d="m442.6,220.38c-4.05-.55-8.41-.27-11.86,1.92-3.45,2.19-5.65,6.68-4.27,10.52l-.85,2.7c-4.94-.17-8.94,4.91-8.94,9.85,0,4.45,2.09,12.32,10.14,12.32,3.41,0,1.07,5.38,3.95,7.2l1.47-.41c.58,3.5,2.98,6.59,6.11,8.27s6.91,1.97,10.34,1.07c1.43-.38,2.28-.89,3.43-1.83.15-.13.49-.51.68-.62.06-.03.12-.05.18-.02.84.37,4.69,1.96,7.03.97,2.65-1.11,4.44-3.59,5.95-6.03,1.62-2.62,3.1-5.44,3.36-8.5l1.94,1.36c1.49,1.42,4.16.54,5.25-1.2s1.05-3.94.93-5.99c-.13-2.19-.41-4.58-1.98-6.1-2.02-1.95-5.23-1.65-8-1.23l2.55-3.3c1.68-2.28,1.64-5.67-.09-7.91s-5-3.13-7.63-2.07l.34-.28c.36-3.47.62-7.31-1.49-10.09-2.36-3.11-6.85-3.67-10.72-3.12-2.51.36-5.06,1.13-6.94,2.83s-2.93,4.51-2,6.87"/>
        <path class="cls-6" d="m442.6,217.88c-4.92-.64-10.25-.06-14.26,3.09-3.68,2.88-5.79,7.95-4.28,12.52v-1.33c-.28.9-.57,1.8-.85,2.7l2.41-1.84c-4.38-.04-8.24,2.85-10.08,6.72-1.55,3.25-1.62,6.77-.78,10.22.78,3.21,2.47,6.17,5.15,8.14,1.43,1.05,3.14,1.68,4.89,1.93.56.08,1.11.14,1.67.16-.11,0,.59.03.6.02-.06.07-.4-.06-.46-.11-.19-.14-.22-.25-.37-.39.24.23.05.11,0-.08.08.35.19.7.26,1.06.01.08.07.48,0,.05.03.21.05.41.08.62.07.51.13,1.03.23,1.53.18.88.5,1.76,1,2.51.82,1.22,2.08,2.23,3.63,1.91.5-.1.98-.27,1.47-.41l-3.08-1.75c.96,5.2,5.05,9.33,10,10.92,2.74.87,5.68.93,8.48.4,1.25-.24,2.5-.63,3.6-1.27.98-.57,1.76-1.36,2.64-2.06l-1.77.73.18-.02-1.26-.34c1.84.8,3.72,1.42,5.73,1.6,2.67.23,4.98-.94,6.91-2.7s3.3-3.98,4.55-6.18c1.52-2.64,2.6-5.39,2.91-8.44l-3.76,2.16c.63.44,1.26.87,1.88,1.32-.58-.42.27.24.54.4.35.2.74.38,1.13.48.91.25,1.87.26,2.79.06,3.87-.81,5.51-4.56,5.6-8.17.08-3.37-.23-7.45-2.77-9.95-2.79-2.75-6.89-2.4-10.43-1.87l2.82,3.67c2.13-2.77,4.39-5.29,4.09-9.08-.46-5.85-6.48-9.93-12.09-7.87l2.43,4.18c1.47-1.2,1.3-3.8,1.32-5.59.02-2.12-.26-4.23-1.13-6.17-1.68-3.76-5.39-5.61-9.31-6.07s-8.19.25-11.45,2.29c-3.5,2.2-5.86,6.52-4.42,10.65.45,1.27,1.71,2.12,3.08,1.75,1.24-.34,2.19-1.8,1.75-3.08-.82-2.34.8-4.33,2.81-5.39,2.21-1.17,5.05-1.47,7.51-1.28,2.13.16,4.35,1.01,5.39,2.99,1.22,2.34.78,5.35.53,7.86l.73-1.77-.34.28c-1.91,1.57.14,5.02,2.43,4.18,3.09-1.13,6.4,1.13,5.7,4.58-.38,1.86-2.23,3.57-3.35,5.03-.59.77-.35,2.09.2,2.78.68.85,1.59,1.05,2.63.9,1.66-.25,4.2-.68,5.57.59,1.44,1.33,1.31,4.22,1.31,6,0,.99-.02,2.23-.65,3.07-.15.2-.4.42-.71.55,0,0-.8.14-.46.14.17,0-.36-.16-.18-.03.22.16-.31-.23-.49-.37-.16-.12-.33-.23-.49-.35l-1.44-1.01c-1.71-1.2-3.59.46-3.76,2.16-.23,2.19-1.25,4.23-2.34,6.1-1.03,1.78-2.13,3.57-3.66,4.97-1.28,1.17-2.41,1.47-4.06,1.11-.78-.17-1.54-.42-2.29-.7-.14-.05-.27-.1-.4-.16.33.14.38.16.17.07-.61-.26-1.12-.39-1.77-.28-.99.18-1.48.8-2.21,1.39-.66.55-1.41.89-2.23,1.11-2.03.55-4.22.56-6.25.02-3.68-.99-6.43-3.85-7.12-7.6-.24-1.33-1.86-2.08-3.08-1.75l-1.47.41,1.93.25c.14.1-.07-.09-.04-.06-.07-.08-.14-.22-.17-.31.02.05.12.31.03.03s-.16-.56-.21-.84c-.02-.12-.04-.25-.06-.37-.07-.42.04.34-.01-.08-.18-1.31-.25-2.67-.95-3.84-1.61-2.7-5.01-1.65-7.14-2.82-1.8-.99-2.97-2.8-3.58-4.72-.17-.52-.3-1.04-.42-1.57-.05-.24-.09-.47-.14-.71-.02-.12-.04-.23-.06-.35.07.49,0-.03,0-.13-.09-1.12-.14-2.22.13-3.32.73-2.9,3.07-5.65,6.22-5.62,1.13.01,2.08-.79,2.41-1.84.39-1.23,1.14-2.72.85-4.03-.45-2.07-.29-3.73.93-5.55,2.75-4.1,8.38-4.3,12.79-3.73,1.34.17,2.5-1.27,2.5-2.5,0-1.5-1.15-2.33-2.5-2.5h0Z"/>
      </g>
      <g>
        <path class="cls-13" d="m432.32,234.68c-1.99,4.55-1.73,11.65-1.82,15.54.08,1.17.94,2.64,2.01,3.08.89.44,1.69.53,2.78.54,2.4.01,4.65-1.31,5.68-3.47.56-1.19.9-2.48,1.26-3.64.36-1.66.97-4.21,1.22-6.81-3.45-2.46-7.13-4.52-11.13-5.22Z"/>
        <path class="cls-14" d="m440.58,259.55c-.62.06-1.05.64-.92,1.25.15.71.46,1.59,1.11,2.41,1.48,1.86,3.71,2.17,4.88,2.19.44,0,.87-.18,1.14-.53,1.88-2.39,4.6-4.26,7.66-5.82.47-.24.25-.95-.27-.89-4.54.46-9.07.93-13.61,1.39Z"/>
        <path class="cls-1" d="m439.79,244.01c.27,2.49-2.98,3.69-3.62.94-.45-1.33.57-2.88,1.92-2.99.83.41,1.87.98,1.7,2.04Z"/>
      </g>
      <g>
        <path class="cls-13" d="m459.45,235.64c1.99,4.55,1.73,11.65,1.82,15.54-.08,1.17-.94,2.64-2.01,3.08-1.13.56-2.31.68-3.44.31-.51-.17-1.05-.24-1.58-.33-2.73-.49-3.97-4.19-4.7-6.55-.36-1.66-.97-4.21-1.22-6.81,3.45-2.46,7.13-4.52,11.13-5.22Z"/>
        <path class="cls-1" d="m451.98,244.98c-.27,2.49,2.98,3.69,3.62.94.45-1.33-.57-2.88-1.92-2.99-.83.41-1.87.98-1.7,2.04Z"/>
      </g>
    </g>
    <g>
      <g>
        <path class="cls-1" d="m580,163.73c-4.05-.55-8.41-.27-11.86,1.92-3.45,2.19-5.65,6.68-4.27,10.52l-.85,2.7c-4.94-.17-8.94,4.91-8.94,9.85,0,4.45,2.09,12.32,10.14,12.32,3.41,0,1.07,5.38,3.95,7.2l1.47-.41c.58,3.5,2.98,6.59,6.11,8.27,3.13,1.67,6.91,1.97,10.34,1.07,1.43-.38,2.28-.89,3.43-1.83.15-.13.49-.51.68-.62.06-.03.12-.05.18-.02.84.37,4.69,1.96,7.03.97,2.65-1.11,4.44-3.59,5.95-6.03,1.62-2.62,3.1-5.44,3.36-8.5l1.94,1.36c1.49,1.42,4.16.54,5.25-1.2,1.09-1.74,1.05-3.94.93-5.99-.13-2.19-.41-4.58-1.98-6.1-2.02-1.95-5.23-1.65-8-1.23l2.55-3.3c1.68-2.28,1.64-5.67-.09-7.91-1.73-2.24-5-3.13-7.63-2.07l.34-.28c.36-3.47.62-7.31-1.49-10.09-2.36-3.11-6.85-3.67-10.72-3.12-2.51.36-5.06,1.13-6.94,2.83-1.88,1.7-2.93,4.51-2,6.87"/>
        <path class="cls-6" d="m580,161.23c-4.92-.64-10.25-.06-14.26,3.09-3.68,2.88-5.79,7.95-4.28,12.52v-1.33c-.28.9-.57,1.8-.85,2.7l2.41-1.84c-4.38-.04-8.24,2.85-10.08,6.72-1.55,3.25-1.62,6.77-.78,10.22.78,3.21,2.47,6.17,5.15,8.14,1.43,1.05,3.14,1.68,4.89,1.93.56.08,1.11.14,1.67.16-.11,0,.59.03.6.02-.06.07-.4-.06-.46-.11-.19-.14-.22-.25-.37-.39.24.23.05.11,0-.08.08.35.19.7.26,1.06.01.08.07.48,0,.05.03.21.05.41.08.62.07.51.13,1.03.23,1.53.18.88.5,1.76,1,2.51.82,1.22,2.08,2.23,3.63,1.91.5-.1.98-.27,1.47-.41l-3.08-1.75c.96,5.2,5.05,9.33,10,10.92,2.74.87,5.68.93,8.48.4,1.25-.24,2.5-.63,3.6-1.27.98-.57,1.76-1.36,2.64-2.06l-1.77.73.18-.02-1.26-.34c1.84.8,3.72,1.42,5.73,1.6,2.67.23,4.98-.94,6.91-2.7s3.3-3.98,4.55-6.18c1.52-2.64,2.6-5.39,2.91-8.44l-3.76,2.16c.63.44,1.26.87,1.88,1.32-.58-.42.27.24.54.4.35.2.74.38,1.13.48.91.25,1.87.26,2.79.06,3.87-.81,5.51-4.56,5.6-8.17.08-3.37-.23-7.45-2.77-9.95-2.79-2.75-6.89-2.4-10.43-1.87l2.82,3.67c2.13-2.77,4.39-5.29,4.09-9.08-.46-5.85-6.48-9.93-12.09-7.87l2.43,4.18c1.47-1.2,1.3-3.8,1.32-5.59.02-2.12-.26-4.23-1.13-6.17-1.68-3.76-5.39-5.61-9.31-6.07s-8.19.25-11.45,2.29c-3.5,2.2-5.86,6.52-4.42,10.65.45,1.27,1.71,2.12,3.08,1.75,1.24-.34,2.19-1.8,1.75-3.08-.82-2.34.8-4.33,2.81-5.39,2.21-1.17,5.05-1.47,7.51-1.28,2.13.16,4.35,1.01,5.39,2.99,1.22,2.34.78,5.35.53,7.86l.73-1.77-.34.28c-1.91,1.57.14,5.02,2.43,4.18,3.09-1.13,6.4,1.13,5.7,4.58-.38,1.86-2.23,3.57-3.35,5.03-.59.77-.35,2.09.2,2.78.68.85,1.59,1.05,2.63.9,1.66-.25,4.2-.68,5.57.59,1.44,1.33,1.31,4.22,1.31,6,0,.99-.02,2.23-.65,3.07-.15.2-.4.42-.71.55,0,0-.8.14-.46.14.17,0-.36-.16-.18-.03.22.16-.31-.23-.49-.37-.16-.12-.33-.23-.49-.35l-1.44-1.01c-1.71-1.2-3.59.46-3.76,2.16-.23,2.19-1.25,4.23-2.34,6.1-1.03,1.78-2.13,3.57-3.66,4.97-1.28,1.17-2.41,1.47-4.06,1.11-.78-.17-1.54-.42-2.29-.7-.14-.05-.27-.1-.4-.16.33.14.38.16.17.07-.61-.26-1.12-.39-1.77-.28-.99.18-1.48.8-2.21,1.39-.66.55-1.41.89-2.23,1.11-2.03.55-4.22.56-6.25.02-3.68-.99-6.43-3.85-7.12-7.6-.24-1.33-1.86-2.08-3.08-1.75l-1.47.41,1.93.25c.14.1-.07-.09-.04-.06-.07-.08-.14-.22-.17-.31.02.05.12.31.03.03s-.16-.56-.21-.84c-.02-.12-.04-.25-.06-.37-.07-.42.04.34-.01-.08-.18-1.31-.25-2.67-.95-3.84-1.61-2.7-5.01-1.65-7.14-2.82-1.8-.99-2.97-2.8-3.58-4.72-.17-.52-.3-1.04-.42-1.57-.05-.24-.09-.47-.14-.71-.02-.12-.04-.23-.06-.35.07.49,0-.03,0-.13-.09-1.12-.14-2.22.13-3.32.73-2.9,3.07-5.65,6.22-5.62,1.13.01,2.08-.79,2.41-1.84.39-1.23,1.14-2.72.85-4.03-.45-2.07-.29-3.73.93-5.55,2.75-4.1,8.38-4.3,12.79-3.73,1.34.17,2.5-1.27,2.5-2.5,0-1.5-1.15-2.33-2.5-2.5h0Z"/>
      </g>
      <g>
        <path class="cls-13" d="m569.72,178.03c-1.99,4.55-1.73,11.65-1.82,15.54.08,1.17.94,2.64,2.01,3.08.89.44,1.69.53,2.78.54,2.4.01,4.65-1.31,5.68-3.47.56-1.19.9-2.48,1.26-3.64.36-1.66.97-4.21,1.22-6.81-3.45-2.46-7.13-4.52-11.13-5.22Z"/>
        <path class="cls-14" d="m577.98,202.91c-.62.06-1.05.64-.92,1.25.15.71.46,1.59,1.11,2.41,1.48,1.86,3.71,2.17,4.88,2.19.44,0,.87-.18,1.14-.53,1.88-2.39,4.6-4.26,7.66-5.82.47-.24.25-.95-.27-.89-4.54.46-9.07.93-13.61,1.39Z"/>
        <path class="cls-1" d="m577.19,187.36c.27,2.49-2.98,3.69-3.62.94-.45-1.33.57-2.88,1.92-2.99.83.41,1.87.98,1.7,2.04Z"/>
      </g>
      <g>
        <path class="cls-13" d="m596.85,179c1.99,4.55,1.73,11.65,1.82,15.54-.08,1.17-.94,2.64-2.01,3.08-1.13.56-2.31.68-3.44.31-.51-.17-1.05-.24-1.58-.33-2.73-.49-3.97-4.19-4.7-6.55-.36-1.66-.97-4.21-1.22-6.81,3.45-2.46,7.13-4.52,11.13-5.22Z"/>
        <path class="cls-1" d="m589.37,188.33c-.27,2.49,2.98,3.69,3.62.94.45-1.33-.57-2.88-1.92-2.99-.83.41-1.87.98-1.7,2.04Z"/>
      </g>
    </g>
    <g>
      <g>
        <path class="cls-1" d="m1074.13,160.67c-4.05-.55-8.41-.27-11.86,1.92-3.45,2.19-5.65,6.68-4.27,10.52l-.85,2.7c-4.94-.17-8.94,4.91-8.94,9.85,0,4.45,2.09,12.32,10.14,12.32,3.41,0,1.07,5.38,3.95,7.2l1.47-.41c.58,3.5,2.98,6.59,6.11,8.27,3.13,1.67,6.91,1.97,10.34,1.07,1.43-.38,2.28-.89,3.43-1.83.15-.13.49-.51.68-.62.06-.03.12-.05.18-.02.84.37,4.69,1.96,7.03.97,2.65-1.11,4.44-3.59,5.95-6.03,1.62-2.62,3.1-5.44,3.36-8.5l1.94,1.36c1.49,1.42,4.16.54,5.25-1.2,1.09-1.74,1.05-3.94.93-5.99-.13-2.19-.41-4.58-1.98-6.1-2.02-1.95-5.23-1.65-8-1.23l2.55-3.3c1.68-2.28,1.64-5.67-.09-7.91s-5-3.13-7.63-2.07l.34-.28c.36-3.47.62-7.31-1.49-10.09-2.36-3.11-6.85-3.67-10.72-3.12-2.51.36-5.06,1.13-6.94,2.83-1.88,1.7-2.93,4.51-2,6.87"/>
        <path class="cls-6" d="m1074.13,158.17c-4.92-.64-10.25-.06-14.26,3.09-3.68,2.88-5.79,7.95-4.28,12.52v-1.33c-.28.9-.57,1.8-.85,2.7l2.41-1.84c-4.38-.04-8.24,2.85-10.08,6.72-1.55,3.25-1.62,6.77-.78,10.22.78,3.21,2.47,6.17,5.15,8.14,1.43,1.05,3.14,1.68,4.89,1.93.56.08,1.11.14,1.67.16-.11,0,.59.03.6.02-.06.07-.4-.06-.46-.11-.19-.14-.22-.25-.37-.39.24.23.05.11,0-.08.08.35.19.7.26,1.06.01.08.07.48,0,.05.03.21.05.41.08.62.07.51.13,1.03.23,1.53.18.88.5,1.76,1,2.51.82,1.22,2.08,2.23,3.63,1.91.5-.1.98-.27,1.47-.41l-3.08-1.75c.96,5.2,5.05,9.33,10,10.92,2.74.87,5.68.93,8.48.4,1.25-.24,2.5-.63,3.6-1.27.98-.57,1.76-1.36,2.64-2.06l-1.77.73.18-.02-1.26-.34c1.84.8,3.72,1.42,5.73,1.6,2.67.23,4.98-.94,6.91-2.7s3.3-3.98,4.55-6.18c1.52-2.64,2.6-5.39,2.91-8.44l-3.76,2.16c.63.44,1.26.87,1.88,1.32-.58-.42.27.24.54.4.35.2.74.38,1.13.48.91.25,1.87.26,2.79.06,3.87-.81,5.51-4.56,5.6-8.17.08-3.37-.23-7.45-2.77-9.95-2.79-2.75-6.89-2.4-10.43-1.87l2.82,3.67c2.13-2.77,4.39-5.29,4.09-9.08-.46-5.85-6.48-9.93-12.09-7.87l2.43,4.18c1.47-1.2,1.3-3.8,1.32-5.59.02-2.12-.26-4.23-1.13-6.17-1.68-3.76-5.39-5.61-9.31-6.07s-8.19.25-11.45,2.29c-3.5,2.2-5.86,6.52-4.42,10.65.45,1.27,1.71,2.12,3.08,1.75,1.24-.34,2.19-1.8,1.75-3.08-.82-2.34.8-4.33,2.81-5.39,2.21-1.17,5.05-1.47,7.51-1.28,2.13.16,4.35,1.01,5.39,2.99,1.22,2.34.78,5.35.53,7.86l.73-1.77-.34.28c-1.91,1.57.14,5.02,2.43,4.18,3.09-1.13,6.4,1.13,5.7,4.58-.38,1.86-2.23,3.57-3.35,5.03-.59.77-.35,2.09.2,2.78.68.85,1.59,1.05,2.63.9,1.66-.25,4.2-.68,5.57.59,1.44,1.33,1.31,4.22,1.31,6,0,.99-.02,2.23-.65,3.07-.15.2-.4.42-.71.55,0,0-.8.14-.46.14.17,0-.36-.16-.18-.03.22.16-.31-.23-.49-.37-.16-.12-.33-.23-.49-.35-.48-.34-.96-.67-1.44-1.01-1.71-1.2-3.59.46-3.76,2.16-.23,2.19-1.25,4.23-2.34,6.1-1.03,1.78-2.13,3.57-3.66,4.97-1.28,1.17-2.41,1.47-4.06,1.11-.78-.17-1.54-.42-2.29-.7-.14-.05-.27-.1-.4-.16.33.14.38.16.17.07-.61-.26-1.12-.39-1.77-.28-.99.18-1.48.8-2.21,1.39-.66.55-1.41.89-2.23,1.11-2.03.55-4.22.56-6.25.02-3.68-.99-6.43-3.85-7.12-7.6-.24-1.33-1.86-2.08-3.08-1.75l-1.47.41,1.93.25c.14.1-.07-.09-.04-.06-.07-.08-.14-.22-.17-.31.02.05.12.31.03.03s-.16-.56-.21-.84c-.02-.12-.04-.25-.06-.37-.07-.42.04.34-.01-.08-.18-1.31-.25-2.67-.95-3.84-1.61-2.7-5.01-1.65-7.14-2.82-1.8-.99-2.97-2.8-3.58-4.72-.17-.52-.3-1.04-.42-1.57-.05-.24-.09-.47-.14-.71-.02-.12-.04-.23-.06-.35.07.49,0-.03,0-.13-.09-1.12-.14-2.22.13-3.32.73-2.9,3.07-5.65,6.22-5.62,1.13.01,2.08-.79,2.41-1.84.39-1.23,1.14-2.72.85-4.03-.45-2.07-.29-3.73.93-5.55,2.75-4.1,8.38-4.3,12.79-3.73,1.34.17,2.5-1.27,2.5-2.5,0-1.5-1.15-2.33-2.5-2.5h0Z"/>
      </g>
      <g>
        <path class="cls-13" d="m1063.84,174.97c-1.99,4.55-1.73,11.65-1.82,15.54.08,1.17.94,2.64,2.01,3.08.89.44,1.69.53,2.78.54,2.4.01,4.65-1.31,5.68-3.47.56-1.19.9-2.48,1.26-3.64.36-1.66.97-4.21,1.22-6.81-3.45-2.46-7.13-4.52-11.13-5.22Z"/>
        <path class="cls-14" d="m1072.11,199.85c-.62.06-1.05.64-.92,1.25.15.71.46,1.59,1.11,2.41,1.48,1.86,3.71,2.17,4.88,2.19.44,0,.87-.18,1.14-.53,1.88-2.39,4.6-4.26,7.66-5.82.47-.24.25-.95-.27-.89-4.54.46-9.07.93-13.61,1.39Z"/>
        <path class="cls-1" d="m1071.31,184.3c.27,2.49-2.98,3.69-3.62.94-.45-1.33.57-2.88,1.92-2.99.83.41,1.87.98,1.7,2.04Z"/>
      </g>
      <g>
        <path class="cls-13" d="m1090.97,175.94c1.99,4.55,1.73,11.65,1.82,15.54-.08,1.17-.94,2.64-2.01,3.08-1.13.56-2.31.68-3.44.31-.51-.17-1.05-.24-1.58-.33-2.73-.49-3.97-4.19-4.7-6.55-.36-1.66-.97-4.21-1.22-6.81,3.45-2.46,7.13-4.52,11.13-5.22Z"/>
        <path class="cls-1" d="m1083.5,185.27c-.27,2.49,2.98,3.69,3.62.94.45-1.33-.57-2.88-1.92-2.99-.83.41-1.87.98-1.7,2.04Z"/>
      </g>
    </g>
    <g>
      <g>
        <path class="cls-1" d="m1205.59,94.84c-4.05-.55-8.41-.27-11.86,1.92-3.45,2.19-5.65,6.68-4.27,10.52l-.85,2.7c-4.94-.17-8.94,4.91-8.94,9.85,0,4.45,2.09,12.32,10.14,12.32,3.41,0,1.07,5.38,3.95,7.2l1.47-.41c.58,3.5,2.98,6.59,6.11,8.27,3.13,1.67,6.91,1.97,10.34,1.07,1.43-.38,2.28-.89,3.43-1.83.15-.13.49-.51.68-.62.06-.03.12-.05.18-.02.84.37,4.69,1.96,7.03.97,2.65-1.11,4.44-3.59,5.95-6.03,1.62-2.62,3.1-5.44,3.36-8.5l1.94,1.36c1.49,1.42,4.16.54,5.25-1.2,1.09-1.74,1.05-3.94.93-5.99-.13-2.19-.41-4.58-1.98-6.1-2.02-1.95-5.23-1.65-8-1.23l2.55-3.3c1.68-2.28,1.64-5.67-.09-7.91s-5-3.13-7.63-2.07l.34-.28c.36-3.47.62-7.31-1.49-10.09-2.36-3.11-6.85-3.67-10.72-3.12-2.51.36-5.06,1.13-6.94,2.83-1.88,1.7-2.93,4.51-2,6.87"/>
        <path class="cls-6" d="m1205.59,92.34c-4.92-.64-10.25-.06-14.26,3.09-3.68,2.88-5.79,7.95-4.28,12.52v-1.33c-.28.9-.57,1.8-.85,2.7l2.41-1.84c-4.38-.04-8.24,2.85-10.08,6.72-1.55,3.25-1.62,6.77-.78,10.22.78,3.21,2.47,6.17,5.15,8.14,1.43,1.05,3.14,1.68,4.89,1.93.56.08,1.11.14,1.67.16-.11,0,.59.03.6.02-.06.07-.4-.06-.46-.11-.19-.14-.22-.25-.37-.39.24.23.05.11,0-.08.08.35.19.7.26,1.06.01.08.07.48,0,.05.03.21.05.41.08.62.07.51.13,1.03.23,1.53.18.88.5,1.76,1,2.51.82,1.22,2.08,2.23,3.63,1.91.5-.1.98-.27,1.47-.41l-3.08-1.75c.96,5.2,5.05,9.33,10,10.92,2.74.87,5.68.93,8.48.4,1.25-.24,2.5-.63,3.6-1.27.98-.57,1.76-1.36,2.64-2.06l-1.77.73.18-.02-1.26-.34c1.84.8,3.72,1.42,5.73,1.6,2.67.23,4.98-.94,6.91-2.7s3.3-3.98,4.55-6.18c1.52-2.64,2.6-5.39,2.91-8.44l-3.76,2.16c.63.44,1.26.87,1.88,1.32-.58-.42.27.24.54.4.35.2.74.38,1.13.48.91.25,1.87.26,2.79.06,3.87-.81,5.51-4.56,5.6-8.17.08-3.37-.23-7.45-2.77-9.95-2.79-2.75-6.89-2.4-10.43-1.87l2.82,3.67c2.13-2.77,4.39-5.29,4.09-9.08-.46-5.85-6.48-9.93-12.09-7.87l2.43,4.18c1.47-1.2,1.3-3.8,1.32-5.59.02-2.12-.26-4.23-1.13-6.17-1.68-3.76-5.39-5.61-9.31-6.07s-8.19.25-11.45,2.29c-3.5,2.2-5.86,6.52-4.42,10.65.45,1.27,1.71,2.12,3.08,1.75,1.24-.34,2.19-1.8,1.75-3.08-.82-2.34.8-4.33,2.81-5.39,2.21-1.17,5.05-1.47,7.51-1.28,2.13.16,4.35,1.01,5.39,2.99,1.22,2.34.78,5.35.53,7.86l.73-1.77-.34.28c-1.91,1.57.14,5.02,2.43,4.18,3.09-1.13,6.4,1.13,5.7,4.58-.38,1.86-2.23,3.57-3.35,5.03-.59.77-.35,2.09.2,2.78.68.85,1.59,1.05,2.63.9,1.66-.25,4.2-.68,5.57.59,1.44,1.33,1.31,4.22,1.31,6,0,.99-.02,2.23-.65,3.07-.15.2-.4.42-.71.55,0,0-.8.14-.46.14.17,0-.36-.16-.18-.03.22.16-.31-.23-.49-.37-.16-.12-.33-.23-.49-.35-.48-.34-.96-.67-1.44-1.01-1.71-1.2-3.59.46-3.76,2.16-.23,2.19-1.25,4.23-2.34,6.1-1.03,1.78-2.13,3.57-3.66,4.97-1.28,1.17-2.41,1.47-4.06,1.11-.78-.17-1.54-.42-2.29-.7-.14-.05-.27-.1-.4-.16.33.14.38.16.17.07-.61-.26-1.12-.39-1.77-.28-.99.18-1.48.8-2.21,1.39-.66.55-1.41.89-2.23,1.11-2.03.55-4.22.56-6.25.02-3.68-.99-6.43-3.85-7.12-7.6-.24-1.33-1.86-2.08-3.08-1.75l-1.47.41,1.93.25c.14.1-.07-.09-.04-.06-.07-.08-.14-.22-.17-.31.02.05.12.31.03.03s-.16-.56-.21-.84c-.02-.12-.04-.25-.06-.37-.07-.42.04.34-.01-.08-.18-1.31-.25-2.67-.95-3.84-1.61-2.7-5.01-1.65-7.14-2.82-1.8-.99-2.97-2.8-3.58-4.72-.17-.52-.3-1.04-.42-1.57-.05-.24-.09-.47-.14-.71-.02-.12-.04-.23-.06-.35.07.49,0-.03,0-.13-.09-1.12-.14-2.22.13-3.32.73-2.9,3.07-5.65,6.22-5.62,1.13.01,2.08-.79,2.41-1.84.39-1.23,1.14-2.72.85-4.03-.45-2.07-.29-3.73.93-5.55,2.75-4.1,8.38-4.3,12.79-3.73,1.34.17,2.5-1.27,2.5-2.5,0-1.5-1.15-2.33-2.5-2.5h0Z"/>
      </g>
      <g>
        <path class="cls-13" d="m1195.3,109.14c-1.99,4.55-1.73,11.65-1.82,15.54.08,1.17.94,2.64,2.01,3.08.89.44,1.69.53,2.78.54,2.4.01,4.65-1.31,5.68-3.47.56-1.19.9-2.48,1.26-3.64.36-1.66.97-4.21,1.22-6.81-3.45-2.46-7.13-4.52-11.13-5.22Z"/>
        <path class="cls-14" d="m1203.57,134.02c-.62.06-1.05.64-.92,1.25.15.71.46,1.59,1.11,2.41,1.48,1.86,3.71,2.17,4.88,2.19.44,0,.87-.18,1.14-.53,1.88-2.39,4.6-4.26,7.66-5.82.47-.24.25-.95-.27-.89-4.54.46-9.07.93-13.61,1.39Z"/>
        <path class="cls-1" d="m1202.78,118.47c.27,2.49-2.98,3.69-3.62.94-.45-1.33.57-2.88,1.92-2.99.83.41,1.87.98,1.7,2.04Z"/>
      </g>
      <g>
        <path class="cls-13" d="m1222.43,110.11c1.99,4.55,1.73,11.65,1.82,15.54-.08,1.17-.94,2.64-2.01,3.08-1.13.56-2.31.68-3.44.31-.51-.17-1.05-.24-1.58-.33-2.73-.49-3.97-4.19-4.7-6.55-.36-1.66-.97-4.21-1.22-6.81,3.45-2.46,7.13-4.52,11.13-5.22Z"/>
        <path class="cls-1" d="m1214.96,119.44c-.27,2.49,2.98,3.69,3.62.94.45-1.33-.57-2.88-1.92-2.99-.83.41-1.87.98-1.7,2.04Z"/>
      </g>
    </g>
    <g>
      <g>
        <path class="cls-1" d="m1228.54,299.34c-4.05-.55-8.41-.27-11.86,1.92-3.45,2.19-5.65,6.68-4.27,10.52l-.85,2.7c-4.94-.17-8.94,4.91-8.94,9.85,0,4.45,2.09,12.32,10.14,12.32,3.41,0,1.07,5.38,3.95,7.2l1.47-.41c.58,3.5,2.98,6.59,6.11,8.27s6.91,1.97,10.34,1.07c1.43-.38,2.28-.89,3.43-1.83.15-.13.49-.51.68-.62.06-.03.12-.05.18-.02.84.37,4.69,1.96,7.03.97,2.65-1.11,4.44-3.59,5.95-6.03,1.62-2.62,3.1-5.44,3.36-8.5l1.94,1.36c1.49,1.42,4.16.54,5.25-1.2s1.05-3.94.93-5.99c-.13-2.19-.41-4.58-1.98-6.1-2.02-1.95-5.23-1.65-8-1.23l2.55-3.3c1.68-2.28,1.64-5.67-.09-7.91s-5-3.13-7.63-2.07l.34-.28c.36-3.47.62-7.31-1.49-10.09-2.36-3.11-6.85-3.67-10.72-3.12-2.51.36-5.06,1.13-6.94,2.83s-2.93,4.51-2,6.87"/>
        <path class="cls-6" d="m1228.54,296.84c-4.92-.64-10.25-.06-14.26,3.09-3.68,2.88-5.79,7.95-4.28,12.52v-1.33c-.28.9-.57,1.8-.85,2.7l2.41-1.84c-4.38-.04-8.24,2.85-10.08,6.72-1.55,3.25-1.62,6.77-.78,10.22.78,3.21,2.47,6.17,5.15,8.14,1.43,1.05,3.14,1.68,4.89,1.93.56.08,1.11.14,1.67.16-.11,0,.59.03.6.02-.06.07-.4-.06-.46-.11-.19-.14-.22-.25-.37-.39.24.23.05.11,0-.08.08.35.19.7.26,1.06.01.08.07.48,0,.05.03.21.05.41.08.62.07.51.13,1.03.23,1.53.18.88.5,1.76,1,2.51.82,1.22,2.08,2.23,3.63,1.91.5-.1.98-.27,1.47-.41l-3.08-1.75c.96,5.2,5.05,9.33,10,10.92,2.74.87,5.68.93,8.48.4,1.25-.24,2.5-.63,3.6-1.27.98-.57,1.76-1.36,2.64-2.06l-1.77.73.18-.02-1.26-.34c1.84.8,3.72,1.42,5.73,1.6,2.67.23,4.98-.94,6.91-2.7s3.3-3.98,4.55-6.18c1.52-2.64,2.6-5.39,2.91-8.44l-3.76,2.16c.63.44,1.26.87,1.88,1.32-.58-.42.27.24.54.4.35.2.74.38,1.13.48.91.25,1.87.26,2.79.06,3.87-.81,5.51-4.56,5.6-8.17.08-3.37-.23-7.45-2.77-9.95-2.79-2.75-6.89-2.4-10.43-1.87l2.82,3.67c2.13-2.77,4.39-5.29,4.09-9.08-.46-5.85-6.48-9.93-12.09-7.87l2.43,4.18c1.47-1.2,1.3-3.8,1.32-5.59.02-2.12-.26-4.23-1.13-6.17-1.68-3.76-5.39-5.61-9.31-6.07s-8.19.25-11.45,2.29c-3.5,2.2-5.86,6.52-4.42,10.65.45,1.27,1.71,2.12,3.08,1.75,1.24-.34,2.19-1.8,1.75-3.08-.82-2.34.8-4.33,2.81-5.39,2.21-1.17,5.05-1.47,7.51-1.28,2.13.16,4.35,1.01,5.39,2.99,1.22,2.34.78,5.35.53,7.86l.73-1.77-.34.28c-1.91,1.57.14,5.02,2.43,4.18,3.09-1.13,6.4,1.13,5.7,4.58-.38,1.86-2.23,3.57-3.35,5.03-.59.77-.35,2.09.2,2.78.68.85,1.59,1.05,2.63.9,1.66-.25,4.2-.68,5.57.59,1.44,1.33,1.31,4.22,1.31,6,0,.99-.02,2.23-.65,3.07-.15.2-.4.42-.71.55,0,0-.8.14-.46.14.17,0-.36-.16-.18-.03.22.16-.31-.23-.49-.37-.16-.12-.33-.23-.49-.35-.48-.34-.96-.67-1.44-1.01-1.71-1.2-3.59.46-3.76,2.16-.23,2.19-1.25,4.23-2.34,6.1-1.03,1.78-2.13,3.57-3.66,4.97-1.28,1.17-2.41,1.47-4.06,1.11-.78-.17-1.54-.42-2.29-.7-.14-.05-.27-.1-.4-.16.33.14.38.16.17.07-.61-.26-1.12-.39-1.77-.28-.99.18-1.48.8-2.21,1.39-.66.55-1.41.89-2.23,1.11-2.03.55-4.22.56-6.25.02-3.68-.99-6.43-3.85-7.12-7.6-.24-1.33-1.86-2.08-3.08-1.75l-1.47.41,1.93.25c.14.1-.07-.09-.04-.06-.07-.08-.14-.22-.17-.31.02.05.12.31.03.03s-.16-.56-.21-.84c-.02-.12-.04-.25-.06-.37-.07-.42.04.34-.01-.08-.18-1.31-.25-2.67-.95-3.84-1.61-2.7-5.01-1.65-7.14-2.82-1.8-.99-2.97-2.8-3.58-4.72-.17-.52-.3-1.04-.42-1.57-.05-.24-.09-.47-.14-.71-.02-.12-.04-.23-.06-.35.07.49,0-.03,0-.13-.09-1.12-.14-2.22.13-3.32.73-2.9,3.07-5.65,6.22-5.62,1.13.01,2.08-.79,2.41-1.84.39-1.23,1.14-2.72.85-4.03-.45-2.07-.29-3.73.93-5.55,2.75-4.1,8.38-4.3,12.79-3.73,1.34.17,2.5-1.27,2.5-2.5,0-1.5-1.15-2.33-2.5-2.5h0Z"/>
      </g>
      <g>
        <path class="cls-13" d="m1218.26,313.63c-1.99,4.55-1.73,11.65-1.82,15.54.08,1.17.94,2.64,2.01,3.08.89.44,1.69.53,2.78.54,2.4.01,4.65-1.31,5.68-3.47.56-1.19.9-2.48,1.26-3.64.36-1.66.97-4.21,1.22-6.81-3.45-2.46-7.13-4.52-11.13-5.22Z"/>
        <path class="cls-14" d="m1226.52,338.51c-.62.06-1.05.64-.92,1.25.15.71.46,1.59,1.11,2.41,1.48,1.86,3.71,2.17,4.88,2.19.44,0,.87-.18,1.14-.53,1.88-2.39,4.6-4.26,7.66-5.82.47-.24.25-.95-.27-.89-4.54.46-9.07.93-13.61,1.39Z"/>
        <path class="cls-1" d="m1225.73,322.97c.27,2.49-2.98,3.69-3.62.94-.45-1.33.57-2.88,1.92-2.99.83.41,1.87.98,1.7,2.04Z"/>
      </g>
      <g>
        <path class="cls-13" d="m1245.39,314.6c1.99,4.55,1.73,11.65,1.82,15.54-.08,1.17-.94,2.64-2.01,3.08-1.13.56-2.31.68-3.44.31-.51-.17-1.05-.24-1.58-.33-2.73-.49-3.97-4.19-4.7-6.55-.36-1.66-.97-4.21-1.22-6.81,3.45-2.46,7.13-4.52,11.13-5.22Z"/>
        <path class="cls-1" d="m1237.92,323.93c-.27,2.49,2.98,3.69,3.62.94.45-1.33-.57-2.88-1.92-2.99-.83.41-1.87.98-1.7,2.04Z"/>
      </g>
    </g>
    <g>
      <g>
        <path class="cls-1" d="m808.83,110.86c-10.63-1.46-22.05-.72-31.11,5.04-9.05,5.75-14.83,17.5-11.19,27.6l-2.24,7.07c-12.95-.44-23.44,12.88-23.44,25.84,0,11.67,5.48,32.3,26.58,32.3,8.93,0,2.8,14.12,10.36,18.87l3.86-1.06c1.52,9.18,7.81,17.29,16.01,21.67,8.21,4.39,18.12,5.16,27.12,2.8,3.76-.99,5.98-2.33,8.98-4.8.41-.33,1.29-1.33,1.77-1.63.15-.09.31-.12.47-.05,2.2.97,12.29,5.14,18.45,2.55,6.94-2.92,11.64-9.41,15.59-15.82,4.24-6.86,8.14-14.25,8.81-22.29l5.09,3.58c3.9,3.73,10.9,1.42,13.77-3.15s2.77-10.33,2.44-15.71c-.34-5.74-1.07-12.01-5.2-16-5.29-5.1-13.72-4.34-20.98-3.23l6.68-8.66c4.4-5.97,4.3-14.86-.24-20.73-4.54-5.87-13.12-8.2-20.01-5.44l.89-.73c.95-9.09,1.63-19.17-3.89-26.45-6.2-8.16-17.97-9.63-28.11-8.18-6.58.94-13.27,2.96-18.21,7.42-4.93,4.46-7.68,11.82-5.25,18.01"/>
        <path class="cls-6" d="m808.83,108.36c-9.54-1.28-19.48-.8-28.35,3.21-7.84,3.54-14.11,10.37-16.54,18.67-1.33,4.52-1.37,9.45.19,13.92v-1.33c-.75,2.36-1.49,4.71-2.24,7.07l2.41-1.84c-10.29-.25-19.18,7.12-23.22,16.21-3.38,7.61-3.27,15.91-1.18,23.85,1.93,7.34,5.83,14.3,12.19,18.67,3.64,2.5,7.91,3.81,12.27,4.26,1.11.11,2.23.13,3.34.16-.03,0,.77.08.39.02s.34.09.33.08c.11.03.72.28.17.02.17.08.34.18.5.28.51.29-.23-.24,0,0,.1.11.22.22.32.33.41.42-.18-.3,0,.01.08.14.16.27.24.41,0,.01.28.59.13.23s.09.26.1.27c.13.41.25.82.35,1.24.47,2.05.49,3.25.82,5.53.31,2.12.79,4.2,1.79,6.11s3.24,4.74,5.63,4.23c1.29-.27,2.57-.71,3.84-1.06l-3.08-1.75c1.57,9.1,7.46,17.14,15.2,22.03,8.64,5.45,19.48,6.73,29.36,4.59,2.6-.57,5.17-1.4,7.48-2.75,1.06-.62,2.05-1.35,3.02-2.11.51-.4,1.03-.79,1.5-1.23.2-.18.39-.38.58-.57.27-.27.97-.6.04-.25h-1.33c-.51-.07-.06-.07.2.02.39.14.78.33,1.17.49.68.28,1.37.54,2.07.79,1.75.62,3.54,1.15,5.36,1.53,4.4.93,8.76,1.03,12.87-.98,4.37-2.14,7.88-5.67,10.82-9.47,3.1-4.01,5.79-8.41,8.16-12.89,2.89-5.47,5.05-11.24,5.61-17.43l-3.76,2.16c1.24.87,2.47,1.74,3.71,2.61.44.31.91.61,1.34.94.22.17-.74-.6,0,.05.3.26.66.53,1,.75.68.44,1.46.77,2.22,1.01,5.51,1.72,11.76-1.69,14.42-6.53,3.28-5.97,2.79-13.5,2.06-20.05-.7-6.28-2.67-12.67-8.4-16.12-6.16-3.7-13.89-2.76-20.64-1.74l2.82,3.67c1.41-1.83,2.83-3.66,4.24-5.5,1.72-2.24,3.42-4.31,4.51-6.96,3.85-9.32,0-20.71-9.21-25.14-4.94-2.38-10.78-2.9-15.94-.9l2.43,4.18c.28-.23.61-.45.86-.71.87-.87.81-2.23.92-3.38.18-1.82.33-3.63.41-5.46.17-3.75.05-7.54-.71-11.24-1.43-6.95-5.69-12.92-12.1-16.08s-13.21-3.7-19.94-3.05c-7.46.71-15.08,2.67-21.06,7.39-6.22,4.91-10.04,13.75-7.13,21.49.47,1.26,1.69,2.13,3.08,1.75,1.21-.33,2.22-1.8,1.75-3.08-2.01-5.34.11-11.2,4.06-15.07,4.56-4.46,11.09-6.32,17.24-7.23,10.29-1.52,23.64.2,28.08,11.12,2.68,6.59,1.87,14.15,1.16,21.04l.73-1.77-.89.73c-1.89,1.55.14,5.07,2.43,4.18,7.25-2.81,16.34.37,19.26,7.87,1.45,3.74,1.45,8.07-.15,11.76-.94,2.17-2.54,3.98-3.97,5.84s-2.92,3.79-4.38,5.68c-.59.77-.35,2.09.2,2.78.68.85,1.59,1.05,2.63.9,4.89-.74,10.44-1.49,15.17.41s6.69,6.75,7.41,11.57c.4,2.69.53,5.46.59,8.18s-.07,5.66-.96,8.37c-.71,2.18-1.98,4.07-3.96,5.27-1.68,1.02-3.7,1.52-5.4,1.07-1.34-.36-2.59-1.57-3.85-2.45-1.18-.83-2.35-1.65-3.53-2.48-1.69-1.19-3.61.45-3.76,2.16-.44,4.81-2.15,9.43-4.32,13.72s-4.57,8.25-7.28,12.07c-2.4,3.37-5.25,6.6-8.82,8.75-3.29,1.98-6.47,2.22-10.21,1.5-1.72-.33-3.41-.81-5.08-1.36-.66-.22-1.31-.46-1.96-.7-.27-.1-.53-.21-.8-.32-.12-.05-.23-.1-.35-.14-.32-.13.48.21.08.03-1.02-.44-1.97-.73-3.04-.22-.96.45-1.63,1.29-2.4,1.99-1.46,1.32-3.2,2.47-4.99,3.28-3.98,1.8-8.77,2.31-13.09,2.25s-9.14-.95-13.28-2.83c-8.62-3.92-15.13-11.71-16.76-21.11-.23-1.33-1.87-2.08-3.08-1.75-1.29.35-2.58.71-3.86,1.06l1.93.25c-.49-.32-.29-.16-.7-.55-.24-.23-.46-.46-.66-.72.22.29-.29-.49-.35-.6-.27-.47-.37-.7-.42-.83-.56-1.45-.83-2.99-1.06-4.53-.06-.43.04.33-.01-.09-.03-.21-.05-.42-.08-.63-.04-.33-.08-.66-.12-.99-.12-.94-.24-1.88-.4-2.8-.25-1.4-.65-2.85-1.4-4.07-.86-1.42-2.13-2.44-3.7-2.99-1.83-.64-3.9-.37-5.8-.56-3.46-.36-6.64-1.5-9.52-3.43-5-3.35-8.16-9.05-9.85-14.86-.42-1.46-.77-2.95-1.03-4.45-.06-.35-.12-.7-.18-1.06-.02-.15-.05-.31-.07-.47-.11-.74.04.31-.02-.14-.09-.71-.16-1.42-.22-2.13-.27-3.53-.03-6.97,1.04-10.37,2.72-8.57,10.31-16.33,19.77-16.1,1.13.03,2.08-.8,2.41-1.84.72-2.28,1.58-4.56,2.17-6.87.24-.91,0-1.66-.27-2.54-.34-1.13-.56-2.29-.64-3.47-.14-2.24.12-4.44.73-6.6,1.27-4.45,3.92-8.4,7.35-11.47,3.85-3.44,8.81-5.48,13.8-6.57,6.21-1.36,12.69-1.18,18.97-.34,1.34.18,2.5-1.28,2.5-2.5,0-1.5-1.16-2.32-2.5-2.5h0Z"/>
      </g>
      <g>
        <path class="cls-13" d="m781.86,148.35c-5.21,11.93-4.54,30.56-4.77,40.74.2,3.06,2.46,6.93,5.27,8.07,2.34,1.16,4.43,1.39,7.28,1.41,6.29.04,12.19-3.43,14.89-9.11,1.48-3.11,2.36-6.51,3.31-9.56.94-4.34,2.54-11.04,3.21-17.85-9.05-6.46-18.7-11.85-29.19-13.7Z"/>
        <path class="cls-14" d="m803.53,213.58c-1.62.17-2.74,1.69-2.42,3.28.38,1.85,1.2,4.16,2.92,6.33,3.89,4.89,9.72,5.7,12.79,5.75,1.16.02,2.28-.47,2.99-1.38,4.93-6.28,12.05-11.16,20.1-15.27,1.22-.63.67-2.48-.7-2.34-11.9,1.21-23.79,2.43-35.69,3.64Z"/>
        <path class="cls-1" d="m801.46,172.82c.7,6.52-7.82,9.67-9.49,2.47-1.17-3.5,1.5-7.55,5.04-7.83,2.17,1.06,4.92,2.57,4.45,5.36Z"/>
      </g>
      <g>
        <path class="cls-13" d="m853.01,150.89c5.21,11.93,4.54,30.56,4.77,40.74-.2,3.06-2.46,6.93-5.27,8.07-2.97,1.48-6.05,1.77-9.02.8-1.34-.44-2.75-.63-4.13-.88-7.17-1.29-10.4-11-12.33-17.19-.94-4.34-2.54-11.04-3.21-17.85,9.05-6.46,18.7-11.85,29.19-13.7Z"/>
        <path class="cls-1" d="m833.41,175.36c-.7,6.52,7.82,9.67,9.49,2.47,1.17-3.5-1.5-7.55-5.04-7.83-2.17,1.06-4.92,2.57-4.45,5.36Z"/>
      </g>
    </g>
    <path class="cls-6" d="m801.27,139.68c.68.82,1.37,1.63,2,2.49-.12-.17-.19-.25-.03-.03.08.11.16.21.24.32.16.21.32.42.48.64.34.45.67.91,1,1.37,1.26,1.76,2.46,3.56,3.6,5.4.69,1.11,2.27,1.64,3.42.9s1.63-2.23.9-3.42c-2.43-3.92-5.14-7.65-8.08-11.19-.84-1.01-2.68-.93-3.54,0-.99,1.07-.89,2.46,0,3.54h0Z"/>
    <path class="cls-6" d="m826.27,148.06c.68-1.02,1.38-2.03,2.12-3.01.18-.25.37-.49.56-.73.22-.29-.25.31-.02.02.11-.13.21-.27.32-.4.38-.48.77-.96,1.17-1.42,1.58-1.88,3.27-3.66,5.04-5.36.95-.9.98-2.64,0-3.54s-2.52-.96-3.54,0c-3.76,3.58-7.09,7.6-9.96,11.92-.73,1.09-.25,2.81.9,3.42,1.26.66,2.65.27,3.42-.9h0Z"/>
    <g>
      <g>
        <g>
          <path class="cls-1" d="m1060.49,6.79c-6.41-.88-13.31-.43-18.77,3.04-5.46,3.47-8.95,10.56-6.75,16.65l-1.35,4.27c-7.82-.27-14.14,7.77-14.14,15.59,0,7.04,3.31,19.49,16.04,19.49,5.39,0,1.69,8.52,6.25,11.39l2.33-.64c.92,5.54,4.71,10.43,9.66,13.08,4.95,2.65,10.94,3.12,16.37,1.69,2.27-.6,3.61-1.41,5.42-2.9.24-.2.78-.8,1.07-.98.09-.05.19-.07.28-.03,1.32.59,7.42,3.1,11.13,1.54,4.19-1.76,7.02-5.68,9.41-9.54,2.56-4.14,4.91-8.6,5.32-13.45l3.07,2.16c2.35,2.25,6.58.85,8.31-1.9,1.73-2.75,1.67-6.23,1.48-9.48-.21-3.46-.64-7.25-3.14-9.66-3.19-3.08-8.28-2.62-12.66-1.95l4.03-5.22c2.66-3.6,2.59-8.97-.15-12.51-2.74-3.54-7.92-4.95-12.07-3.28l.54-.44c.57-5.49.99-11.57-2.35-15.96-3.74-4.92-10.84-5.81-16.96-4.94-3.97.57-8.01,1.79-10.99,4.48-2.98,2.69-4.63,7.13-3.17,10.87"/>
          <path class="cls-6" d="m1060.49,4.29c-7.45-.99-15.63-.2-21.72,4.6-5.31,4.2-8.48,11.63-6.22,18.26v-1.33c-.45,1.42-.9,2.84-1.35,4.27l2.41-1.84c-6.42-.12-12.05,4.28-14.71,9.93-2.27,4.82-2.32,10.04-1.06,15.14,1.18,4.74,3.65,9.17,7.67,12.05,2.24,1.61,4.9,2.47,7.61,2.81.73.09,1.47.15,2.2.15.14,0,.29,0,.44,0-.07,0-.32.01-.08-.01.11-.01.21.08.31.08-.2,0-.28-.21-.06,0-.33-.29-.07-.1.06.08-.26-.36-.07-.1.03.12.17.37-.05-.35.08.25.06.25.13.49.19.74.06.27.1.53.14.8.05.29,0-.02,0-.06.02.16.04.33.06.49.1.77.19,1.53.31,2.3.21,1.27.57,2.54,1.2,3.67.86,1.52,2.51,3.25,4.42,2.85.78-.16,1.56-.43,2.33-.64l-3.08-1.75c1.35,7.61,7.28,13.72,14.49,16.15,3.9,1.31,8.09,1.5,12.14.87,1.9-.29,3.77-.79,5.5-1.64,1.52-.75,2.95-2.15,4.06-3l-1.26.34.28-.03-1.26-.34c2.64,1.16,5.38,2.04,8.26,2.32,3.89.38,7.24-1.32,10.05-3.91s5.07-6.19,7.01-9.6c2.2-3.88,3.87-7.95,4.29-12.42l-3.76,2.16c.77.54,1.54,1.08,2.3,1.62.16.11,1.07.81.5.36.78.62,1.58,1.13,2.56,1.39,3.71,1,7.81-1.08,9.65-4.35,2.13-3.76,1.89-8.49,1.43-12.65s-1.7-8.1-5.33-10.46c-3.95-2.58-9.05-1.96-13.46-1.3l2.82,3.67c1.17-1.52,2.34-3.03,3.51-4.55,1.93-2.5,2.99-5.57,2.79-8.76-.25-4.17-2.34-7.95-5.92-10.18-3.34-2.08-7.71-2.6-11.39-1.2l2.43,4.18c.82-.67,1.17-1.31,1.29-2.4.13-1.19.23-2.39.3-3.59.13-2.41.06-4.83-.38-7.21-.84-4.48-3.56-8.43-7.65-10.51-3.87-1.97-8.38-2.47-12.67-2.06-4.84.46-9.74,1.73-13.57,4.86s-6.22,8.87-4.42,13.82c.46,1.27,1.7,2.12,3.08,1.75,1.22-.34,2.21-1.8,1.75-3.08-1.08-2.95.06-6.05,2.26-8.18,2.57-2.49,6.3-3.51,9.75-4.03,5.77-.86,13.46-.02,15.95,6.17,1.54,3.83,1.01,8.27.6,12.26l.73-1.77-.54.44c-1.9,1.56.14,5.05,2.43,4.18,5.66-2.15,11.77,2.17,10.95,8.37-.27,2.01-1.36,3.5-2.55,5.05-1.01,1.31-2.02,2.62-3.03,3.93-.59.77-.35,2.09.2,2.78.68.85,1.59,1.05,2.63.9,3.21-.48,7.62-1.15,10.23,1.3s2.5,7.27,2.5,10.56c0,3-.84,7.24-4.36,7.33-.87.02-1.52-.62-2.43-1.26-.8-.56-1.59-1.12-2.39-1.68-1.7-1.2-3.6.46-3.76,2.16-.53,5.5-3.78,10.74-6.92,15.14-1.4,1.96-3.08,3.8-5.18,5.01-1.8,1.03-3.57.99-5.59.54-1.01-.22-2-.51-2.97-.85-.35-.12-.69-.25-1.03-.38-.15-.06-.31-.12-.46-.19.63.26.19.08.06.02-1.71-.73-2.84-.01-4.09,1.13-.82.76-1.76,1.42-2.77,1.9-4.5,2.11-10.68,1.73-15.14-.25-5.01-2.23-8.68-6.73-9.64-12.14-.24-1.33-1.87-2.08-3.08-1.75l-2.33.64,1.93.25c-.24-.16-.38-.3-.51-.49-.09-.13-.17-.28-.25-.42-.37-.65.12.41-.14-.3-.14-.39-.25-.79-.34-1.2-.05-.25-.1-.5-.14-.75-.01-.07-.12-.77-.06-.34-.27-1.92-.34-3.94-1.33-5.66-1.29-2.23-3.46-2.47-5.79-2.6-2.05-.12-3.97-.7-5.63-1.72-2.94-1.81-4.82-5.03-5.83-8.37-.26-.87-.48-1.76-.65-2.66-.07-.39-.14-.79-.2-1.18.08.56-.02-.2-.03-.26-.02-.22-.05-.45-.07-.67-.17-2-.09-3.95.48-5.89,1.45-4.92,5.69-9.41,11.07-9.31,1.13.02,2.08-.8,2.41-1.84.29-.91.57-1.81.86-2.72.41-1.31.68-2.14.27-3.56-.94-3.26.1-6.65,1.95-9.39,4.64-6.83,13.94-7.44,21.38-6.46,1.34.18,2.5-1.28,2.5-2.5,0-1.5-1.16-2.32-2.5-2.5h0Z"/>
        </g>
        <g>
          <path class="cls-13" d="m1044.22,29.41c-3.14,7.2-2.74,18.44-2.88,24.58.12,1.85,1.49,4.18,3.18,4.87,1.41.7,2.67.84,4.39.85,3.79.02,7.35-2.07,8.98-5.5.89-1.88,1.42-3.93,2-5.77.57-2.62,1.53-6.66,1.94-10.77-5.46-3.9-11.28-7.15-17.61-8.26Z"/>
          <path class="cls-14" d="m1057.29,68.77c-.98.1-1.66,1.02-1.46,1.98.23,1.12.72,2.51,1.76,3.82,2.35,2.95,5.87,3.44,7.72,3.47.7.01,1.37-.28,1.81-.83,2.98-3.79,7.27-6.74,12.13-9.22.74-.38.4-1.5-.42-1.41-7.18.73-14.36,1.47-21.53,2.2Z"/>
          <path class="cls-1" d="m1056.04,44.18c.42,3.93-4.72,5.83-5.73,1.49-.7-2.11.91-4.56,3.04-4.73,1.31.64,2.97,1.55,2.69,3.23Z"/>
        </g>
        <g>
          <path class="cls-13" d="m1087.14,30.94c3.14,7.2,2.74,18.44,2.88,24.58-.12,1.85-1.49,4.18-3.18,4.87-1.79.89-3.65,1.07-5.44.48-.81-.27-1.66-.38-2.49-.53-4.33-.78-6.28-6.64-7.44-10.37-.57-2.62-1.53-6.66-1.94-10.77,5.46-3.9,11.28-7.15,17.61-8.26Z"/>
          <path class="cls-1" d="m1075.32,45.71c-.42,3.93,4.72,5.83,5.73,1.49.7-2.11-.91-4.56-3.04-4.73-1.31.64-2.97,1.55-2.69,3.23Z"/>
        </g>
      </g>
      <path class="cls-6" d="m1071.01,30.51c2.15-2.13,4.09-4.45,5.86-6.91.36-.5.41-1.36.25-1.93s-.61-1.21-1.15-1.49c-.58-.31-1.28-.46-1.93-.25s-1.1.59-1.49,1.15c-.36.51-.74,1.01-1.12,1.5l.39-.51c-1.34,1.73-2.79,3.37-4.35,4.9-.93.92-.99,2.63,0,3.54s2.54.98,3.54,0h0Z"/>
      <path class="cls-6" d="m1061.9,25.45c-2.15-1.1-4.2-2.38-6.14-3.83-.49-.36-1.37-.41-1.93-.25s-1.21.61-1.49,1.15c-.31.58-.46,1.28-.25,1.93l.25.6c.22.38.52.67.9.9,1.94,1.44,3.99,2.73,6.14,3.83.6.31,1.27.43,1.93.25.58-.16,1.21-.61,1.49-1.15.6-1.14.35-2.78-.9-3.42h0Z"/>
    </g>
    <g>
      <g>
        <g>
          <path class="cls-1" d="m349.11,143.26c-6.41-.88-13.31-.43-18.77,3.04-5.46,3.47-8.95,10.56-6.75,16.65l-1.35,4.27c-7.82-.27-14.14,7.77-14.14,15.59,0,7.04,3.31,19.49,16.04,19.49,5.39,0,1.69,8.52,6.25,11.39l2.33-.64c.92,5.54,4.71,10.43,9.66,13.08,4.95,2.65,10.94,3.12,16.37,1.69,2.27-.6,3.61-1.41,5.42-2.9.24-.2.78-.8,1.07-.98.09-.05.19-.07.28-.03,1.32.59,7.42,3.1,11.13,1.54,4.19-1.76,7.02-5.68,9.41-9.54,2.56-4.14,4.91-8.6,5.32-13.45l3.07,2.16c2.35,2.25,6.58.85,8.31-1.9,1.73-2.75,1.67-6.23,1.48-9.48-.21-3.46-.64-7.25-3.14-9.66-3.19-3.08-8.28-2.62-12.66-1.95l4.03-5.22c2.66-3.6,2.59-8.97-.15-12.51-2.74-3.54-7.92-4.95-12.07-3.28l.54-.44c.57-5.49.99-11.57-2.35-15.96-3.74-4.92-10.84-5.81-16.96-4.94-3.97.57-8.01,1.79-10.99,4.48-2.98,2.69-4.63,7.13-3.17,10.87"/>
          <path class="cls-6" d="m349.11,140.76c-7.45-.99-15.63-.2-21.72,4.6-5.31,4.2-8.48,11.63-6.22,18.26v-1.33c-.45,1.42-.9,2.84-1.35,4.27l2.41-1.84c-6.42-.12-12.05,4.28-14.71,9.93-2.27,4.82-2.32,10.04-1.06,15.14,1.18,4.74,3.65,9.17,7.67,12.05,2.24,1.61,4.9,2.47,7.61,2.81.73.09,1.47.15,2.2.15.14,0,.29,0,.44,0-.07,0-.32.01-.08-.01.11-.01.21.08.31.08-.2,0-.28-.21-.06,0-.33-.29-.07-.1.06.08-.26-.36-.07-.1.03.12.17.37-.05-.35.08.25.06.25.13.49.19.74.06.27.1.53.14.8.05.29,0-.02,0-.06.02.16.04.33.06.49.1.77.19,1.53.31,2.3.21,1.27.57,2.54,1.2,3.67.86,1.52,2.51,3.25,4.42,2.85.78-.16,1.56-.43,2.33-.64l-3.08-1.75c1.35,7.61,7.28,13.72,14.49,16.15,3.9,1.31,8.09,1.5,12.14.87,1.9-.29,3.77-.79,5.5-1.64,1.52-.75,2.95-2.15,4.06-3l-1.26.34.28-.03-1.26-.34c2.64,1.16,5.38,2.04,8.26,2.32,3.89.38,7.24-1.32,10.05-3.91s5.07-6.19,7.01-9.6c2.2-3.88,3.87-7.95,4.29-12.42l-3.76,2.16c.77.54,1.54,1.08,2.3,1.62.16.11,1.07.81.5.36.78.62,1.58,1.13,2.56,1.39,3.71,1,7.81-1.08,9.65-4.35,2.13-3.76,1.89-8.49,1.43-12.65s-1.7-8.1-5.33-10.46c-3.95-2.58-9.05-1.96-13.46-1.3l2.82,3.67c1.17-1.52,2.34-3.03,3.51-4.55,1.93-2.5,2.99-5.57,2.79-8.76-.25-4.17-2.34-7.95-5.92-10.18-3.34-2.08-7.71-2.6-11.39-1.2l2.43,4.18c.82-.67,1.17-1.31,1.29-2.4.13-1.19.23-2.39.3-3.59.13-2.41.06-4.83-.38-7.21-.84-4.48-3.56-8.43-7.65-10.51-3.87-1.97-8.38-2.47-12.67-2.06-4.84.46-9.74,1.73-13.57,4.86s-6.22,8.87-4.42,13.82c.46,1.27,1.7,2.12,3.08,1.75,1.22-.34,2.21-1.8,1.75-3.08-1.08-2.95.06-6.05,2.26-8.18,2.57-2.49,6.3-3.51,9.75-4.03,5.77-.86,13.46-.02,15.95,6.17,1.54,3.83,1.01,8.27.6,12.26l.73-1.77-.54.44c-1.9,1.56.14,5.05,2.43,4.18,5.66-2.15,11.77,2.17,10.95,8.37-.27,2.01-1.36,3.5-2.55,5.05-1.01,1.31-2.02,2.62-3.03,3.93-.59.77-.35,2.09.2,2.78.68.85,1.59,1.05,2.63.9,3.21-.48,7.62-1.15,10.23,1.3s2.5,7.27,2.5,10.56c0,3-.84,7.24-4.36,7.33-.87.02-1.52-.62-2.43-1.26-.8-.56-1.59-1.12-2.39-1.68-1.7-1.2-3.6.46-3.76,2.16-.53,5.5-3.78,10.74-6.92,15.14-1.4,1.96-3.08,3.8-5.18,5.01-1.8,1.03-3.57.99-5.59.54-1.01-.22-2-.51-2.97-.85-.35-.12-.69-.25-1.03-.38-.15-.06-.31-.12-.46-.19.63.26.19.08.06.02-1.71-.73-2.84-.01-4.09,1.13-.82.76-1.76,1.42-2.77,1.9-4.5,2.11-10.68,1.73-15.14-.25-5.01-2.23-8.68-6.73-9.64-12.14-.24-1.33-1.87-2.08-3.08-1.75l-2.33.64,1.93.25c-.24-.16-.38-.3-.51-.49-.09-.13-.17-.28-.25-.42-.37-.65.12.41-.14-.3-.14-.39-.25-.79-.34-1.2-.05-.25-.1-.5-.14-.75-.01-.07-.12-.77-.06-.34-.27-1.92-.34-3.94-1.33-5.66-1.29-2.23-3.46-2.47-5.79-2.6-2.05-.12-3.97-.7-5.63-1.72-2.94-1.81-4.82-5.03-5.83-8.37-.26-.87-.48-1.76-.65-2.66-.07-.39-.14-.79-.2-1.18.08.56-.02-.2-.03-.26-.02-.22-.05-.45-.07-.67-.17-2-.09-3.95.48-5.89,1.45-4.92,5.69-9.41,11.07-9.31,1.13.02,2.08-.8,2.41-1.84.29-.91.57-1.81.86-2.72.41-1.31.68-2.14.27-3.56-.94-3.26.1-6.65,1.95-9.39,4.64-6.83,13.94-7.44,21.38-6.46,1.34.18,2.5-1.28,2.5-2.5,0-1.5-1.16-2.32-2.5-2.5h0Z"/>
        </g>
        <g>
          <path class="cls-13" d="m332.84,165.88c-3.14,7.2-2.74,18.44-2.88,24.58.12,1.85,1.49,4.18,3.18,4.87,1.41.7,2.67.84,4.39.85,3.79.02,7.35-2.07,8.98-5.5.89-1.88,1.42-3.93,2-5.77.57-2.62,1.53-6.66,1.94-10.77-5.46-3.9-11.28-7.15-17.61-8.26Z"/>
          <path class="cls-14" d="m345.92,205.24c-.98.1-1.66,1.02-1.46,1.98.23,1.12.72,2.51,1.76,3.82,2.35,2.95,5.87,3.44,7.72,3.47.7.01,1.37-.28,1.81-.83,2.98-3.79,7.27-6.74,12.13-9.22.74-.38.4-1.5-.42-1.41-7.18.73-14.36,1.47-21.53,2.2Z"/>
          <path class="cls-1" d="m344.67,180.65c.42,3.93-4.72,5.83-5.73,1.49-.7-2.11.91-4.56,3.04-4.73,1.31.64,2.97,1.55,2.69,3.23Z"/>
        </g>
        <g>
          <path class="cls-13" d="m375.77,167.41c3.14,7.2,2.74,18.44,2.88,24.58-.12,1.85-1.49,4.18-3.18,4.87-1.79.89-3.65,1.07-5.44.48-.81-.27-1.66-.38-2.49-.53-4.33-.78-6.28-6.64-7.44-10.37-.57-2.62-1.53-6.66-1.94-10.77,5.46-3.9,11.28-7.15,17.61-8.26Z"/>
          <path class="cls-1" d="m363.95,182.18c-.42,3.93,4.72,5.83,5.73,1.49.7-2.11-.91-4.56-3.04-4.73-1.31.64-2.97,1.55-2.69,3.23Z"/>
        </g>
      </g>
      <path class="cls-6" d="m359.47,167.03c3.22-3.79,6.65-7.39,10.27-10.81.95-.9.98-2.64,0-3.54s-2.52-.96-3.54,0c-3.62,3.41-7.05,7.02-10.27,10.81-.85.99-1.05,2.57,0,3.54.93.86,2.63,1.06,3.54,0h0Z"/>
      <path class="cls-6" d="m349.29,161.42c-.87-.48-1.71-1.01-2.52-1.58-.2-.14-.4-.29-.6-.44-.43-.32.46.36.03.03-.08-.06-.16-.12-.23-.19-.41-.33-.8-.67-1.19-1.02-.73-.67-1.43-1.37-2.09-2.12-.33-.37-.64-.76-.95-1.14-.19-.24.33.45.07.09-.07-.1-.15-.2-.22-.3-.16-.22-.32-.44-.47-.67-.74-1.08-2.23-1.67-3.42-.9-1.07.69-1.69,2.27-.9,3.42,2.58,3.75,5.96,6.91,9.96,9.12,1.14.63,2.78.31,3.42-.9s.32-2.74-.9-3.42h0Z"/>
    </g>
  </g>
</svg>