<?xml version="1.0" encoding="UTF-8"?>
<svg id="Layer_2" data-name="Layer 2" xmlns="http://www.w3.org/2000/svg" viewBox="0 0 506.03 460.99">
  <defs>
    <style>
      .cls-1 {
        fill: #b4b6b7;
      }

      .cls-1, .cls-2 {
        stroke-width: 4.6px;
      }

      .cls-1, .cls-2, .cls-3 {
        stroke: #231f20;
        stroke-miterlimit: 10;
      }

      .cls-4 {
        fill: #fff;
      }

      .cls-4, .cls-5 {
        stroke-width: 0px;
      }

      .cls-2 {
        fill: #f5ec43;
      }

      .cls-5 {
        fill: #231f20;
      }

      .cls-3 {
        fill: #eaeae9;
        stroke-width: 4.21px;
      }
    </style>
  </defs>
  <g id="Layer_11" data-name="Layer 11">
    <g>
      <g>
        <path class="cls-3" d="m135.14,451.49c108.96,33.07,236.84-49.03,256.82-162.4C402.67,83.07,87.18-7.96,13.94,190.44c-40.87,97.52,30.03,223.83,121.2,261.05Z"/>
        <g>
          <g>
            <path class="cls-2" d="m130.79,170.61c-.31-.31-.63-.62-.95-.92-.95-.9-1.94-1.76-2.97-2.58-.68-.55-1.38-1.07-2.09-1.58-.36-.25-.72-.5-1.09-.75-.73-.49-1.47-.96-2.23-1.4-.76-.45-1.54-.87-2.33-1.28-.79-.4-1.6-.78-2.42-1.14s-1.66-.7-2.52-1.01c-.85-.32-1.72-.61-2.6-.87-1.33-.4-2.69-.74-4.09-1.03-.93-.19-1.88-.35-2.84-.49-.49-.07-.97-.13-1.46-.19-53.16-.82-66.49,85.64-34.06,117.85.25.25.5.49.75.73.25.23.5.47.75.7.77.7,1.56,1.36,2.38,1.99,2.61,2.03,5.47,3.75,8.57,5.09.44.2.89.38,1.34.56.55.17,1.1.33,1.64.48h.01c.48.13.96.26,1.43.39.41.11.83.21,1.24.31.36.09.72.17,1.08.25.62.14,1.24.26,1.85.38.46.09.92.17,1.38.25,1.33.23,2.63.4,3.92.53.46.05.93.08,1.38.11.43.03.85.06,1.26.08.42.02.84.03,1.26.05.83.02,1.65.02,2.47,0,.41-.02.81-.03,1.21-.05.4-.02.8-.05,1.2-.08.43-.03.85-.07,1.28-.11.95-.1,1.89-.23,2.81-.39.03,0,.06,0,.08,0,.59-.1,1.17-.22,1.75-.34.43-.1.86-.2,1.29-.3,1.28-.31,2.53-.68,3.74-1.11.72-.25,1.43-.52,2.13-.81.53-.22,1.06-.45,1.58-.69,1.4-.65,2.75-1.37,4.06-2.17.51-.31,1.01-.63,1.51-.96,2.49-1.66,4.79-3.58,6.92-5.72,24.47-24.61,24.78-78.51-.62-103.77Z"/>
            <path class="cls-5" d="m130.79,170.61c-.31-.31-.63-.62-.95-.92-.95-.9-1.94-1.76-2.97-2.58-.68-.55-1.38-1.07-2.09-1.58-.36-.25-.72-.5-1.09-.75-.73-.48-1.47-.95-2.23-1.4-.76-.45-1.54-.87-2.33-1.28-.79-.4-1.6-.78-2.42-1.14s-1.66-.7-2.52-1.01c-.85-.31-1.72-.6-2.6-.87-1.33-.4-2.69-.74-4.09-1.03-.93-.19-1.88-.35-2.84-.49-.49-.07-.97-.13-1.46-.19-53.16-.82-66.49,85.64-34.06,117.85.25.25.5.49.75.73.25.23.5.47.75.7.77.69,1.56,1.35,2.38,1.99,2.61,2.03,5.47,3.75,8.57,5.09.44.19.89.37,1.34.55.55.17,1.1.33,1.64.49h.01c.48.13.96.26,1.43.39.41.11.83.21,1.24.31.36.09.72.17,1.08.25.62.14,1.24.26,1.85.38.46.09.92.17,1.38.25,1.37.22,2.71.4,4.03.53.43.04.85.08,1.27.11.43.03.85.06,1.26.08.42.02.84.03,1.26.05.83.02,1.65.02,2.47,0,.41-.02.81-.03,1.21-.05.4-.02.8-.05,1.2-.08.4-.03.8-.07,1.19-.11.98-.1,1.95-.23,2.9-.39.03,0,.06,0,.08,0,.59-.1,1.17-.22,1.75-.34.43-.1.86-.2,1.29-.3,1.28-.32,2.53-.69,3.74-1.11.72-.25,1.43-.52,2.13-.81.53-.22,1.06-.45,1.58-.69,1.4-.65,2.75-1.37,4.06-2.17.51-.31,1.01-.63,1.51-.96,2.49-1.66,4.79-3.58,6.92-5.72,24.47-24.61,24.78-78.51-.62-103.77Zm-39.65.97s.04-.02.07-.03c7.69-3.92,16.86-1.74,24.05,3,.01,0,.02.01.03.02,5.47,3.63,9.79,8.74,11.39,13.74,0,.05.03.1.05.14.93,3.05.87,6.05-.56,8.65-.01.02-.02.05-.04.07-2.53,4.55-9.26,7.86-22.04,8.01-4.76-.21-8.66-2.22-11.77-5.25-3.87-3.75-6.53-9.07-8.13-14.4t0-.02s0-.01,0-.02c0,0,0-.02,0-.03-.6-1.98-1.06-3.95-1.37-5.86,2.38-3.82,5.24-6.42,8.33-8.02Zm46.35,66.01c0,.12,0,.25-.03.37-.01.24-.03.49-.06.74,0,.15-.03.3-.05.45-.01.11-.02.22-.04.33-.17,1.29-.44,2.66-.84,4.13-.06.24-.12.48-.2.72-.01.06-.03.13-.05.19-.05.2-.11.4-.18.6-.24.78-.5,1.58-.81,2.41-.13.37-.27.75-.42,1.13-.14.38-.3.77-.46,1.16-.2.5-.42,1.02-.65,1.54-.31.73-.66,1.49-1.02,2.26-.2.43-.42.87-.64,1.32-.25.51-.52,1.04-.79,1.57-3.59,12.42-19.66,16.14-30.27,18.86-.73-.08-1.44-.16-2.13-.25-.35-.04-.7-.08-1.04-.13-2.39-.31-4.61-.67-6.67-1.08-.59-.11-1.16-.23-1.72-.36-.28-.06-.55-.12-.83-.18-.55-.13-1.08-.26-1.6-.39-.39-.1-.77-.2-1.15-.31-.36-.1-.72-.2-1.07-.3-1.05-.31-2.03-.63-2.95-.97-.31-.11-.62-.22-.91-.34-.27-.1-.54-.21-.8-.31-1-.41-1.91-.84-2.76-1.28-.34-.17-.66-.35-.98-.54-.31-.18-.62-.36-.91-.55-.22-.14-.43-.28-.64-.43-.21-.14-.41-.28-.6-.43-.39-.29-.76-.59-1.1-.89-.23-.2-.45-.4-.65-.61-.15-.14-.28-.29-.41-.43-.14-.14-.26-.29-.38-.43-.25-.29-.48-.58-.68-.88-.11-.15-.21-.3-.3-.45-.15-.23-.28-.46-.41-.7-.11-.22-.22-.44-.32-.67-.54-1.24-.79-2.52-.79-3.84,0-.27,0-.53.03-.8.05-.63.15-1.26.31-1.9.05-.21.11-.42.17-.64.07-.24.15-.48.24-.72.09-.28.2-.56.32-.84.05-.14.11-.28.18-.42.11-.26.23-.52.37-.78.11-.23.23-.45.36-.68.26-.49.56-.98.88-1.47.18-.28.37-.56.57-.84.25-.35.5-.69.77-1.04.8-1.04,1.71-2.08,2.72-3.12.24-.25.48-.49.73-.73.31-.3.62-.61.94-.91.33-.3.66-.6.99-.9.23-.21.47-.42.72-.63.72-.62,1.48-1.24,2.27-1.85.89-.69,1.81-1.38,2.77-2.05.24-.17.48-.34.72-.5.24-.16.48-.32.73-.49.49-.33.99-.65,1.5-.98,2.35-1.49,4.82-2.9,7.37-4.2,1.18-.6,2.37-1.17,3.58-1.72.6-.27,1.21-.54,1.81-.8.43-.18.85-.36,1.27-.53.18-.08.36-.15.55-.22,1.22-.49,2.44-.95,3.65-1.37,1.13-.39,2.25-.75,3.37-1.08.08-.03.17-.06.26-.08,1.11-.32,2.21-.61,3.29-.87.72-.17,1.44-.33,2.15-.47.53-.1,1.06-.19,1.58-.28.57-.09,1.13-.17,1.69-.25.37-.05.74-.09,1.11-.13.6-.06,1.19-.11,1.77-.14.13-.01.27-.02.4-.02.35-.02.69-.03,1.03-.03,1.38-.02,2.7.05,3.94.21,1.01.13,1.97.33,2.87.59.3.09.59.18.88.28.03.01.06.02.08.03.23.09.46.18.69.27.22.1.44.2.66.3.43.22.84.45,1.23.7.2.12.39.25.57.4.37.27.72.57,1.05.89.26.25.51.51.73.79.45.55.84,1.15,1.17,1.81.09.16.17.33.24.51.16.35.3.71.41,1.09.04.09.07.18.09.28.03.09.06.19.08.29.02.07.04.15.06.23.11.43.2.88.26,1.35.03.18.05.36.07.55v.04c.02.11.03.22.03.34,0,.11.02.23.02.34.04.57.04,1.17.02,1.8,0,.12,0,.24-.01.36Z"/>
            <path class="cls-4" d="m100.98,275.37c-99.67-10.71,70.46-96.89,30.26-18.86-3.58,12.42-19.65,16.14-30.26,18.86Z"/>
            <path class="cls-4" d="m104.09,205.18c-26.93-5.15-27.78-41.74,4.52-35.25,23.03,14.21,28.76,33.55-4.52,35.25Z"/>
          </g>
          <path class="cls-5" d="m281.53,143.08c-4.1-3.48-9.21-5.57-14.55-6.1-77.3-7.65-94.03,142.3-5.14,134.31,2.53-.23,5.07-.36,7.61-.54,58.32-4.02,49.72-95.81,12.08-127.67Z"/>
          <path class="cls-4" d="m249.56,262.01c-23.4,0-31.1-27.16-24.69-32.65,18.7-16.63,42.12-28.4,66.54-17.81,0,0,5.46,1.87,5.46,8.25,0,24.72-5.54,42.22-47.31,42.22Z"/>
          <path class="cls-4" d="m270.1,148.96c28.25,14.4,8.53,27.24-9.56,27.21-7.71-.01-12.9-3.7-18.04-8.32-5.7-5.11-4.08-15.35,2.91-17.73,8.31-2.83,19.1-3.43,24.68-1.17Z"/>
        </g>
        <path class="cls-5" d="m222.77,310.63c12.84-2.37,24.77-9.43,33.01-19.55.85-1.05,1.02-2.51,0-3.54-.88-.88-2.68-1.05-3.54,0-7.77,9.55-18.7,16.03-30.81,18.27-1.33.25-2.08,1.85-1.75,3.08.38,1.4,1.74,1.99,3.08,1.75h0Z"/>
      </g>
      <path class="cls-1" d="m272.5,347.14c-19.34,2.01-42.38,22.02-44.33,39.17.9,29.59,60.74,21.75,70.79-10.59,5.79-16.19-10.15-28.92-26.46-28.58Z"/>
      <path class="cls-1" d="m86.21,339.98c-1.57-.74-3.04-1.09-4.38-1.11-5.42-10.43-13.54-19.8-23.38-23.99-14.42-6.8-23.17,6.79-20.84,21.91,4.13,18.07,23.95,41.16,38.69,44.5,5.38.39,8.93-1.92,10.92-5.9,3.39,3.01,6.93,5.2,10.09,5.91,15.49,1.14,6.69-33.73-11.1-41.32Z"/>
      <path class="cls-1" d="m119.92,107.8c-6.79,9.74,1.85,19.82,13.03,21.54,13.54,1,32.76-9.15,37.09-19.95,4.58-19.16-37.6-21.21-50.12-1.59Z"/>
      <path class="cls-1" d="m126.48,433.68c7.17,6.63,23.94,9.96,32.59,8.33,9.23-2.54,9-12.2-.87-18.83-19.34-11.06-46.87-2.6-31.73,10.5Z"/>
      <path class="cls-1" d="m375.65,286.88c-2.47-9.43-10.14-15.35-16.57-7.14-1.55,1.84-2.65,4.35-3.34,7.14-1.54,6.2-1.04,13.75,1.04,18.18,3.96,6.79,13.02,5.85,17.59-2.13,2.44-5.3,2.56-11.15,1.28-16.05Z"/>
    </g>
    <path class="cls-2" d="m353.05,43.82c2.81-6.44-1.75-9.25-.73-21.36.33-3.92,1.48-17.46,8.21-19.8,7.28-2.53,17.83,9.17,20.38,12,8.29,9.2,8.51,16.02,14.24,17,4.48.77,5.67-3.18,14.35-5.3,3.46-.85,13.1-3.21,17.45,1.56,4.73,5.18.45,15.77.09,16.63-3.49,8.36-9.38,8.94-9.44,14.24-.06,5.16,5.51,5.92,9.44,14.35,2.22,4.76,4.94,14.15.85,18.39-4.56,4.73-15.69,1.1-19.69-.2-8.72-2.84-10.26-6.45-13.99-5.41-5.25,1.46-4.36,9.19-11.35,19.71-1.18,1.78-10.45,15.72-17.65,13.97-6.24-1.51-9-14.31-9.64-20.47-.92-8.76,1.43-13.73-1.58-16.02-2.79-2.12-6.05,1.19-13.36,1.07-6.78-.11-16.05-3.16-17.51-8.56-1.46-5.39,5.29-11.56,11.02-16.78,10.56-9.65,16.06-8.46,18.92-15.02Z"/>
    <path class="cls-2" d="m450.31,217.15c-3.64-3.28-6.51-.89-14.29-4.24-2.52-1.08-11.22-4.83-11.28-9.8-.06-5.37,10-9.76,12.44-10.82,7.92-3.45,12.47-2.09,14.39-5.66,1.5-2.79-.85-4.45-.34-10.66.2-2.47.77-9.37,4.89-11.2,4.47-1.98,10.53,3.18,11.02,3.61,4.76,4.16,3.84,8.18,7.33,9.39,3.4,1.18,5.14-2.34,11.58-3.08,3.64-.42,10.45-.14,12.35,3.5,2.12,4.06-2.74,10.62-4.48,12.98-3.8,5.14-6.53,5.36-6.67,8.06-.2,3.79,5.11,4.91,10.53,11.86.91,1.17,8.09,10.38,5.34,14.76-2.38,3.79-11.45,2.79-15.66,1.85-6-1.33-8.76-3.98-10.94-2.49-2.02,1.38-.55,4.26-2.24,9.07-1.57,4.46-5.63,9.92-9.53,9.69-3.89-.22-6.48-6.05-8.67-10.99-4.05-9.12-2.05-12.49-5.76-15.83Z"/>
  </g>
</svg>