<?xml version="1.0" encoding="UTF-8"?>
<svg id="Layer_2" data-name="Layer 2" xmlns="http://www.w3.org/2000/svg" viewBox="0 0 502.13 44.74">
  <defs>
    <style>
      .cls-1 {
        fill: #fff;
        stroke-width: 0px;
      }
    </style>
  </defs>
  <g id="Layer_3" data-name="Layer 3">
    <g>
      <g>
        <path class="cls-1" d="m300.39,12.27v17.13h1.99V12.27h-1.99Z"/>
        <path class="cls-1" d="m316.35,17.44c-.78-.74-1.95-1.11-3.49-1.11-.89,0-1.69.17-2.41.52-.72.34-1.27.83-1.67,1.47h-.1l-.31-1.76h-1.58v12.84h1.94v-6.74c0-1.67.31-2.87.94-3.59.62-.73,1.61-1.09,2.95-1.09,1.02,0,1.76.26,2.24.77.48.52.71,1.3.71,2.34v8.31h1.95v-8.38c0-1.64-.39-2.83-1.17-3.58Z"/>
        <path class="cls-1" d="m329,23.78c-.54-.56-1.57-1.12-3.09-1.68-1.11-.41-1.86-.73-2.25-.95-.39-.22-.67-.45-.85-.69-.18-.24-.26-.53-.26-.88,0-.5.23-.9.7-1.19.47-.29,1.16-.44,2.09-.44,1.04,0,2.21.27,3.5.8l.69-1.58c-1.32-.56-2.67-.84-4.05-.84-1.49,0-2.66.3-3.51.9-.85.61-1.27,1.43-1.27,2.48,0,.59.12,1.09.36,1.51.25.43.63.8,1.13,1.13.5.34,1.35.73,2.55,1.17,1.26.48,2.1.9,2.54,1.26.43.36.65.78.65,1.28,0,.67-.28,1.16-.82,1.49-.55.32-1.33.48-2.35.48-.65,0-1.34-.09-2.04-.27-.71-.18-1.37-.42-1.99-.74v1.81c.95.54,2.28.81,3.98.81,1.61,0,2.86-.33,3.75-.98.9-.64,1.34-1.57,1.34-2.76,0-.85-.27-1.56-.8-2.12Z"/>
        <path class="cls-1" d="m338.11,27.96c-.32.05-.65.07-1,.07-.64,0-1.14-.2-1.51-.62-.37-.41-.55-1.01-.55-1.78v-7.56h3.73v-1.51h-3.73v-2.98h-1.12l-.82,2.75-1.84.8v.94h1.84v7.64c0,2.62,1.24,3.93,3.72,3.93.33,0,.7-.04,1.11-.1.41-.07.72-.15.93-.25v-1.49c-.19.05-.44.11-.76.16Z"/>
        <path class="cls-1" d="m343.23,12.11c-.23-.21-.5-.32-.81-.32-.33,0-.6.1-.82.31s-.33.53-.33.98.11.76.33.98c.22.21.49.32.82.32.31,0,.58-.11.81-.32.23-.22.34-.54.34-.98s-.11-.76-.34-.97Zm-1.79,4.45v12.84h1.94v-12.84h-1.94Z"/>
        <path class="cls-1" d="m352.65,27.96c-.32.05-.65.07-.99.07-.64,0-1.15-.2-1.52-.62-.36-.41-.55-1.01-.55-1.78v-7.56h3.73v-1.51h-3.73v-2.98h-1.12l-.82,2.75-1.84.8v.94h1.84v7.64c0,2.62,1.24,3.93,3.73,3.93.32,0,.69-.04,1.1-.1.41-.07.72-.15.93-.25v-1.49c-.18.05-.44.11-.76.16Z"/>
        <path class="cls-1" d="m364.64,16.56v6.75c0,1.66-.31,2.86-.93,3.6-.62.73-1.61,1.1-2.95,1.1-1.01,0-1.76-.26-2.24-.77-.47-.52-.71-1.3-.71-2.35v-8.33h-1.97v8.4c0,1.63.39,2.82,1.17,3.56.77.75,1.94,1.12,3.51,1.12.9,0,1.71-.17,2.42-.51.7-.33,1.26-.82,1.65-1.45h.11l.28,1.72h1.61v-12.84h-1.95Z"/>
        <path class="cls-1" d="m375.86,27.96c-.33.05-.66.07-1,.07-.64,0-1.15-.2-1.51-.62-.37-.41-.55-1.01-.55-1.78v-7.56h3.72v-1.51h-3.72v-2.98h-1.13l-.82,2.75-1.84.8v.94h1.84v7.64c0,2.62,1.24,3.93,3.73,3.93.33,0,.7-.04,1.11-.1.41-.07.72-.15.93-.25v-1.49c-.19.05-.44.11-.76.16Z"/>
        <path class="cls-1" d="m384.33,27.96c-.32.05-.65.07-1,.07-.64,0-1.14-.2-1.51-.62-.37-.41-.55-1.01-.55-1.78v-7.56h3.73v-1.51h-3.73v-2.98h-1.13l-.82,2.75-1.84.8v.94h1.84v7.64c0,2.62,1.25,3.93,3.73,3.93.33,0,.7-.04,1.11-.1.41-.07.72-.15.93-.25v-1.49c-.19.05-.44.11-.76.16Z"/>
        <path class="cls-1" d="m396.94,13.38c.35-.49.89-.73,1.63-.73.53,0,1.17.12,1.92.36l.5-1.56c-.91-.27-1.71-.41-2.39-.41-2.76,0-4.13,1.58-4.13,4.73v.72l-2.3.7v.88h2.3v11.33h1.94v-11.33h3.27v-1.51h-3.27v-.83c0-1.08.18-1.86.53-2.35Z"/>
        <path class="cls-1" d="m411.52,18.12c-1.06-1.2-2.49-1.79-4.28-1.79s-3.31.58-4.36,1.75c-1.05,1.16-1.57,2.8-1.57,4.89,0,1.35.24,2.53.73,3.54.48,1.01,1.17,1.78,2.06,2.32s1.91.81,3.06.81c1.86,0,3.31-.59,4.37-1.77,1.05-1.17,1.58-2.81,1.58-4.9s-.53-3.66-1.59-4.85Zm-1.42,8.61c-.66.85-1.62,1.28-2.9,1.28s-2.23-.43-2.89-1.29-.99-2.11-.99-3.75.33-2.9.98-3.74c.64-.83,1.61-1.25,2.88-1.25s2.26.42,2.92,1.27c.66.85.99,2.09.99,3.72s-.33,2.9-.99,3.76Z"/>
        <path class="cls-1" d="m422.38,16.33c-.81,0-1.54.22-2.22.67-.67.46-1.24,1.1-1.72,1.94h-.09l-.22-2.38h-1.61v12.84h1.95v-6.89c0-1.26.36-2.31,1.1-3.15.74-.84,1.63-1.27,2.67-1.27.4,0,.87.06,1.4.18l.27-1.8c-.45-.1-.96-.14-1.53-.14Z"/>
        <path class="cls-1" d="m441.19,11.17v5.23l.04.9.09.92h-.16c-.93-1.26-2.26-1.89-4-1.89s-2.98.58-3.92,1.75c-.93,1.17-1.4,2.82-1.4,4.94s.46,3.75,1.4,4.89c.93,1.15,2.24,1.73,3.92,1.73,1.78,0,3.13-.65,4.03-1.96h.1l.26,1.72h1.58V11.17h-1.94Zm0,12.26c0,1.61-.3,2.77-.9,3.49-.6.73-1.56,1.09-2.89,1.09-1.16,0-2.05-.42-2.65-1.26-.6-.83-.9-2.07-.9-3.71s.3-2.87.91-3.76c.6-.88,1.48-1.33,2.62-1.33,1.33,0,2.29.39,2.9,1.17.6.78.91,2.08.91,3.9v.41Z"/>
        <path class="cls-1" d="m457.41,22.1c0-1.73-.47-3.13-1.41-4.19-.94-1.06-2.21-1.58-3.82-1.58-1.72,0-3.09.6-4.11,1.82-1.02,1.22-1.53,2.87-1.53,4.94s.55,3.66,1.65,4.81c1.1,1.16,2.6,1.74,4.49,1.74.87,0,1.61-.07,2.22-.2.62-.12,1.27-.34,1.96-.63v-1.74c-1.36.58-2.72.87-4.11.87-1.31,0-2.33-.39-3.05-1.17-.72-.78-1.1-1.93-1.14-3.44h8.85v-1.23Zm-8.8-.35c.1-1.19.47-2.12,1.08-2.79.61-.67,1.44-1.01,2.47-1.01s1.79.33,2.34.98c.55.65.82,1.59.82,2.82h-6.71Z"/>
        <path class="cls-1" d="m468.21,23.78c-.54-.56-1.57-1.12-3.09-1.68-1.11-.41-1.86-.73-2.25-.95-.39-.22-.68-.45-.85-.69-.18-.24-.27-.53-.27-.88,0-.5.24-.9.71-1.19.47-.29,1.16-.44,2.08-.44,1.05,0,2.22.27,3.51.8l.69-1.58c-1.32-.56-2.67-.84-4.06-.84-1.48,0-2.65.3-3.5.9-.85.61-1.28,1.43-1.28,2.48,0,.59.13,1.09.37,1.51.25.43.62.8,1.13,1.13.5.34,1.35.73,2.55,1.17,1.25.48,2.1.9,2.53,1.26.44.36.65.78.65,1.28,0,.67-.27,1.16-.82,1.49-.54.32-1.33.48-2.34.48-.66,0-1.34-.09-2.05-.27-.7-.18-1.37-.42-1.98-.74v1.81c.95.54,2.28.81,3.98.81,1.61,0,2.86-.33,3.75-.98.89-.64,1.34-1.57,1.34-2.76,0-.85-.27-1.56-.8-2.12Z"/>
        <path class="cls-1" d="m473.97,12.11c-.23-.21-.5-.32-.81-.32-.33,0-.61.1-.82.31-.22.21-.33.53-.33.98s.11.76.33.98c.21.21.49.32.82.32.31,0,.58-.11.81-.32.22-.22.34-.54.34-.98s-.12-.76-.34-.97Zm-1.8,4.45v12.84h1.95v-12.84h-1.95Z"/>
        <path class="cls-1" d="m488.75,16.56h-4.44c-.54-.16-1.14-.23-1.81-.23-1.55,0-2.75.38-3.59,1.14-.84.76-1.27,1.84-1.27,3.25,0,.84.21,1.59.63,2.25s.96,1.12,1.62,1.39c-.53.33-.93.67-1.18,1.02-.25.36-.37.77-.37,1.23,0,.42.11.78.33,1.09.22.32.5.55.83.7-.91.2-1.61.59-2.11,1.16s-.75,1.24-.75,2.02c0,1.14.45,2.03,1.36,2.65.91.63,2.21.94,3.89.94,2.18,0,3.85-.37,4.99-1.12,1.14-.75,1.71-1.83,1.71-3.25,0-1.12-.37-1.97-1.12-2.56-.75-.58-1.81-.88-3.2-.88h-2.28c-.7,0-1.2-.08-1.49-.25-.29-.17-.43-.43-.43-.78,0-.66.41-1.21,1.24-1.65.34.06.7.09,1.08.09,1.5,0,2.68-.37,3.54-1.12.86-.75,1.29-1.75,1.29-3.01,0-.56-.09-1.06-.26-1.5-.17-.44-.37-.8-.58-1.07l2.37-.28v-1.23Zm-7.44,12.55h2.33c1.19,0,2,.13,2.43.4.43.27.65.76.65,1.45,0,.84-.4,1.5-1.18,1.99-.79.49-2,.73-3.63.73-1.09,0-1.93-.18-2.52-.54-.58-.36-.88-.89-.88-1.58,0-.79.25-1.4.74-1.82.49-.42,1.18-.63,2.06-.63Zm1.14-5.71c-.91,0-1.61-.23-2.12-.69-.51-.46-.76-1.14-.76-2.04,0-.97.24-1.7.74-2.19.49-.49,1.19-.74,2.1-.74,1.93,0,2.89.97,2.89,2.9s-.95,2.76-2.85,2.76Z"/>
        <path class="cls-1" d="m500.95,17.44c-.78-.74-1.94-1.11-3.49-1.11-.88,0-1.68.17-2.4.52-.72.34-1.28.83-1.68,1.47h-.09l-.32-1.76h-1.58v12.84h1.95v-6.74c0-1.67.31-2.87.93-3.59.63-.73,1.61-1.09,2.96-1.09,1.01,0,1.76.26,2.24.77.47.52.71,1.3.71,2.34v8.31h1.95v-8.38c0-1.64-.4-2.83-1.18-3.58Z"/>
      </g>
      <g>
        <g>
          <path class="cls-1" d="m33.08,0H11.02C4.93,0,0,4.94,0,11.02v22.07c0,6.08,4.93,11.02,11.02,11.02h22.06c6.09,0,11.02-4.94,11.02-11.02V11.02c0-6.08-4.93-11.02-11.02-11.02Zm0,33.09H11.02V11.02h22.06v22.07Z"/>
          <path class="cls-1" d="m21.98,12.93c-5,0-9.05,4.05-9.05,9.05s4.05,9.05,9.05,9.05,9.05-4.05,9.05-9.05-4.05-9.05-9.05-9.05Z"/>
        </g>
        <path class="cls-1" d="m89.92.05v1.48h6.45l.06,5.72v24.02L74.95.05h-14.03v1.48h5.71l.07,5.72v29.24l-.07,5.89h-5.71v1.49h14.34v-1.49h-6.64l-.06-5.89V2.84l28.8,41.9,1-.31V7.25l.06-5.72h5.34V.05h-13.84Z"/>
        <path class="cls-1" d="m107.73.05v14.03h1.8c.13-2.12.31-4.72,2.36-8.01,2.61-4.16,5.34-4.16,8.94-4.22h2.86l.06,5.58v28.62l-.06,6.33h-6.71v1.49h20.36v-1.49h-6.7l-.06-6.33V7.43l.06-5.58h3.48c2.97.12,6.02.31,8.25,4.09,1.93,3.23,2.17,5.96,2.36,8.14h1.86V.05h-38.86Z"/>
        <path class="cls-1" d="m179.19.05v1.48h6.45l.06,5.72v24.02L164.22.05h-14.03v1.48h5.72l.06,5.72v29.24l-.06,5.89h-5.72v1.49h14.35v-1.49h-6.65l-.06-5.89V2.84l28.8,41.9,1-.31V7.25l.06-5.72h5.34V.05h-13.84Z"/>
        <path class="cls-1" d="m228.93.05v1.48h6.27l.06,5.28v25.08c-.19,5.53-.93,10.62-12.6,10.62s-11.68-5.84-11.73-11.98V6.81l.05-5.28h6.15V.05h-18.5v1.48h5.34l.07,5.28v22.85c.06,5.96.18,10.8,5.71,13.16,3.47,1.43,8.94,1.67,11.23,1.67,16.08,0,16.14-6.95,16.21-15.08V6.81l.06-5.28h5.4V.05h-13.72Z"/>
      </g>
      <path class="cls-1" d="m269.76,43.91c-.28,0-.5-.22-.5-.5V.55c0-.28.22-.5.5-.5s.5.22.5.5v42.86c0,.28-.22.5-.5.5Z"/>
    </g>
  </g>
</svg>